<?xml version="1.0" standalone="yes"?>
<svg xmlns="http://www.w3.org/2000/svg" width="342" height="48">
<path style="fill:#fff5fe; stroke:none;" d="M0 0L0 48L342 48L342 0L0 0z"/>
<path style="fill:#dbcbf2; stroke:none;" d="M285 14C286.248 14.6848 286.548 14.7488 288 15C286.752 14.3152 286.452 14.2512 285 14M271 15C272.506 15.683 273.315 15.8259 275 16C273.494 15.317 272.685 15.1741 271 15z"/>
<path style="fill:#b7a1e5; stroke:none;" d="M275 15C276.248 15.6848 276.548 15.7488 278 16C276.752 15.3152 276.452 15.2512 275 15z"/>
<path style="fill:#9276d9; stroke:none;" d="M278 15C279.248 15.6848 279.548 15.7488 281 16C279.752 15.3152 279.452 15.2512 278 15z"/>
<path style="fill:#6e4ccc; stroke:none;" d="M53 23C60.3995 26.105 71.9926 24 80 24C98.7232 24 117.284 25 136 25C171.265 25 206.773 26.4968 242 28.0394C256.227 28.6624 270.776 31.0921 285 30.9174C290.08 30.8551 295.092 28.3128 300 27.1304C308.138 25.1697 316.636 24.0055 325 24C319.98 20.1957 310.224 20.8334 304 19.75C297.971 18.7006 292.039 15.5421 286 15.1188C278.937 14.6238 271.055 16.1589 264 16.8302C257.685 17.4312 251.333 17.2276 245 17.8302C229.444 19.3106 213.61 18.3558 198 19.0394C167.699 20.3662 137.304 20.6337 107 21.9606C89.6051 22.7223 69.9755 18.9585 53 23z"/>
<path style="fill:#dbcbf2; stroke:none;" d="M253 16C254.769 16.7789 256.036 16.9124 258 17C256.231 16.2211 254.964 16.0876 253 16z"/>
<path style="fill:#b7a1e5; stroke:none;" d="M258 16C259.506 16.683 260.315 16.8259 262 17C260.494 16.317 259.685 16.1741 258 16z"/>
<path style="fill:#9276d9; stroke:none;" d="M262 16C263.769 16.7789 265.036 16.9124 267 17C265.231 16.2211 263.964 16.0876 262 16z"/>
<path style="fill:#ad96e2; stroke:none;" d="M291 16L292 17L291 16z"/>
<path style="fill:#dbcbf2; stroke:none;" d="M231 17C232.769 17.779 234.036 17.9124 236 18C234.231 17.2211 232.964 17.0876 231 17z"/>
<path style="fill:#b7a1e5; stroke:none;" d="M236 17C238.052 17.8743 239.747 17.9528 242 18C239.948 17.1257 238.253 17.0472 236 17z"/>
<path style="fill:#9276d9; stroke:none;" d="M242 17C244.052 17.8743 245.747 17.9528 248 18C245.948 17.1257 244.253 17.0472 242 17z"/>
<path style="fill:#d2c0ee; stroke:none;" d="M294.667 17.3333C294.222 17.7777 295.278 17.7223 295.333 17.6667C295.778 17.2222 294.722 17.2778 294.667 17.3333z"/>
<path style="fill:#dbcbf2; stroke:none;" d="M203 18C205.332 18.9845 207.457 18.9813 210 19C207.668 18.0155 205.543 18.0187 203 18z"/>
<path style="fill:#b7a1e5; stroke:none;" d="M210 18C212.332 18.9845 214.457 18.9813 217 19C214.668 18.0155 212.543 18.0187 210 18z"/>
<path style="fill:#9276d9; stroke:none;" d="M217 18C219.332 18.9845 221.457 18.9813 224 19C221.668 18.0155 219.543 18.0187 217 18z"/>
<path style="fill:#a48bdf; stroke:none;" d="M297.667 18.3333C297.222 18.7777 298.278 18.7223 298.333 18.6667C298.778 18.2222 297.722 18.2778 297.667 18.3333z"/>
<path style="fill:#e4d5f5; stroke:none;" d="M299.667 18.3333C299.222 18.7777 300.278 18.7222 300.333 18.6667C300.778 18.2222 299.722 18.2778 299.667 18.3333z"/>
<path style="fill:#dbcbf2; stroke:none;" d="M168 19C170.89 20.2129 173.874 19.9983 177 20C174.11 18.787 171.126 19.0017 168 19z"/>
<path style="fill:#b7a1e5; stroke:none;" d="M177 19C179.89 20.2129 182.874 19.9983 186 20C183.11 18.787 180.126 19.0017 177 19z"/>
<path style="fill:#9276d9; stroke:none;" d="M186 19C188.613 20.0977 191.165 19.9928 194 20C191.387 18.9023 188.835 19.0072 186 19z"/>
<path style="fill:#ad96e2; stroke:none;" d="M302 19C303.248 19.6848 303.548 19.7488 305 20C303.752 19.3152 303.452 19.2512 302 19z"/>
<path style="fill:#dbcbf2; stroke:none;" d="M125 20C128.432 21.4403 132.3 21 136 21C132.568 19.5597 128.7 20 125 20z"/>
<path style="fill:#b7a1e5; stroke:none;" d="M136 20C139.432 21.4403 143.3 21 147 21C143.568 19.5597 139.7 20 136 20z"/>
<path style="fill:#9276d9; stroke:none;" d="M147 20C150.432 21.4403 154.3 21 158 21C154.568 19.5597 150.7 20 147 20z"/>
<path style="fill:#a48bdf; stroke:none;" d="M308 20C309.248 20.6848 309.548 20.7488 311 21C309.752 20.3152 309.452 20.2512 308 20z"/>
<path style="fill:#dbcbf2; stroke:none;" d="M311.667 20.3333C311.222 20.7777 312.278 20.7223 312.333 20.6667C312.778 20.2222 311.722 20.2778 311.667 20.3333M71 21C75.4714 22.8763 81.1834 22 86 22C81.5286 20.1237 75.8166 21 71 21z"/>
<path style="fill:#b7a1e5; stroke:none;" d="M86 21C89.9587 22.6611 94.7366 22 99 22C95.0413 20.3389 90.2634 21 86 21z"/>
<path style="fill:#9276d9; stroke:none;" d="M99 21C102.959 22.6611 107.737 22 112 22C108.041 20.3389 103.263 21 99 21M315.667 21.3333C315.222 21.7777 316.278 21.7222 316.333 21.6667C316.778 21.2222 315.722 21.2778 315.667 21.3333z"/>
<path style="fill:#b7a1e5; stroke:none;" d="M317.667 21.3333C317.222 21.7777 318.278 21.7222 318.333 21.6667C318.778 21.2222 317.722 21.2778 317.667 21.3333z"/>
<path style="fill:#dbcbf2; stroke:none;" d="M319 21C320.248 21.6848 320.548 21.7488 322 22C320.752 21.3152 320.452 21.2512 319 21M1 23C6.7405 25.4088 14.9977 24.1143 21 23C15.6153 20.7405 6.53597 21.3636 1 23z"/>
<path style="fill:#b7a1e5; stroke:none;" d="M18 23C23.9526 25.4978 32.7707 24.1565 39 23C33.0474 20.5022 24.2293 21.8435 18 23z"/>
<path style="fill:#9276d9; stroke:none;" d="M36 23C41.3725 25.2544 49.4166 24.3293 55 23C49.4744 20.6814 41.7728 21.9283 36 23M324 22C325.223 23.1952 325.42 23.3165 327 24C326.02 22.2166 326.092 22.4057 324 22z"/>
<path style="fill:#b7a1e5; stroke:none;" d="M327 22L327 24L330 24L330 22L327 22z"/>
<path style="fill:#dbcbf2; stroke:none;" d="M330 22L330 24L333 24L333 22L330 22M69 24C73.2165 25.7693 78.4589 25 83 25C78.7835 23.2307 73.5411 24 69 24z"/>
<path style="fill:#b7a1e5; stroke:none;" d="M83 24C87.2165 25.7693 92.4589 25 97 25C92.7835 23.2307 87.5411 24 83 24z"/>
<path style="fill:#9276d9; stroke:none;" d="M97 24C100.959 25.6611 105.737 25 110 25C106.041 23.3389 101.263 24 97 24M315 24C316.248 24.6848 316.548 24.7488 318 25C316.752 24.3152 316.452 24.2512 315 24z"/>
<path style="fill:#dbcbf2; stroke:none;" d="M318 24C319.506 24.6831 320.315 24.8259 322 25C320.494 24.317 319.685 24.1741 318 24M123 25C126.432 26.4403 130.3 26 134 26C130.568 24.5597 126.7 25 123 25z"/>
<path style="fill:#b7a1e5; stroke:none;" d="M134 25C137.432 26.4403 141.3 26 145 26C141.568 24.5597 137.7 25 134 25z"/>
<path style="fill:#9276d9; stroke:none;" d="M145 25C148.432 26.4403 152.3 26 156 26C152.568 24.5597 148.7 25 145 25z"/>
<path style="fill:#9b81dc; stroke:none;" d="M308.667 25.3333C308.222 25.7777 309.278 25.7223 309.333 25.6667C309.778 25.2222 308.722 25.2778 308.667 25.3333z"/>
<path style="fill:#c9b6eb; stroke:none;" d="M310 25C311.248 25.6848 311.548 25.7488 313 26C311.752 25.3152 311.452 25.2512 310 25z"/>
<path style="fill:#dbcbf2; stroke:none;" d="M166 26C168.89 27.2129 171.874 26.9983 175 27C172.11 25.787 169.126 26.0017 166 26z"/>
<path style="fill:#b7a1e5; stroke:none;" d="M175 26C177.89 27.2129 180.874 26.9983 184 27C181.11 25.787 178.126 26.0017 175 26z"/>
<path style="fill:#9276d9; stroke:none;" d="M184 26C186.89 27.2129 189.874 26.9983 193 27C190.11 25.787 187.126 26.0017 184 26z"/>
<path style="fill:#a48bdf; stroke:none;" d="M302 26C303.248 26.6848 303.548 26.7488 305 27C303.752 26.3152 303.452 26.2512 302 26z"/>
<path style="fill:#dbcbf2; stroke:none;" d="M201 27C203.613 28.0977 206.164 27.9928 209 28C206.387 26.9023 203.835 27.0072 201 27z"/>
<path style="fill:#b7a1e5; stroke:none;" d="M209 27C211.332 27.9845 213.457 27.9813 216 28C213.668 27.0155 211.543 27.0187 209 27z"/>
<path style="fill:#9276d9; stroke:none;" d="M216 27C218.332 27.9845 220.457 27.9813 223 28C220.668 27.0155 218.543 27.0187 216 27z"/>
<path style="fill:#c0abe8; stroke:none;" d="M298 27C299.248 27.6848 299.548 27.7488 301 28C299.752 27.3152 299.452 27.2512 298 27z"/>
<path style="fill:#dbcbf2; stroke:none;" d="M230 28C232.052 28.8743 233.747 28.9528 236 29C233.948 28.1257 232.253 28.0472 230 28z"/>
<path style="fill:#b7a1e5; stroke:none;" d="M236 28C237.769 28.779 239.036 28.9124 241 29C239.231 28.2211 237.964 28.0876 236 28z"/>
<path style="fill:#9276d9; stroke:none;" d="M241 28C243.052 28.8743 244.747 28.9528 247 29C244.948 28.1257 243.253 28.0472 241 28z"/>
<path style="fill:#c9b6eb; stroke:none;" d="M294.667 28.3333C294.222 28.7777 295.278 28.7223 295.333 28.6667C295.778 28.2222 294.722 28.2778 294.667 28.3333z"/>
<path style="fill:#dbcbf2; stroke:none;" d="M252 29C253.769 29.7789 255.036 29.9124 257 30C255.231 29.2211 253.964 29.0876 252 29z"/>
<path style="fill:#b7a1e5; stroke:none;" d="M257 29C258.769 29.7789 260.036 29.9124 262 30C260.231 29.2211 258.964 29.0876 257 29z"/>
<path style="fill:#9276d9; stroke:none;" d="M262 29C263.506 29.6831 264.315 29.8259 266 30C264.494 29.317 263.685 29.1741 262 29z"/>
<path style="fill:#ad96e2; stroke:none;" d="M291 29L292 30L291 29z"/>
<path style="fill:#dbcbf2; stroke:none;" d="M270 30C271.506 30.6831 272.315 30.8259 274 31C272.494 30.317 271.685 30.1741 270 30z"/>
<path style="fill:#b7a1e5; stroke:none;" d="M274 30C275.506 30.6831 276.315 30.8259 278 31C276.494 30.317 275.685 30.1741 274 30z"/>
<path style="fill:#9276d9; stroke:none;" d="M278 30C279.248 30.6848 279.548 30.7488 281 31C279.752 30.3152 279.452 30.2512 278 30z"/>
<path style="fill:#c9b6eb; stroke:none;" d="M289 30L290 31L289 30z"/>
<path style="fill:#dbcbf2; stroke:none;" d="M284 31C285.506 31.683 286.315 31.8259 288 32C286.494 31.317 285.685 31.1741 284 31z"/>
</svg>
