<?xml version="1.0" standalone="yes"?>
<svg xmlns="http://www.w3.org/2000/svg" width="290" height="48">
<path style="fill:#fcdfdb; stroke:none;" d="M0 0L0 20C10.7098 16.605 21.0735 18.7352 32 18.946C48.0224 19.2551 63.9376 18.2635 80 18.9606C87.6782 19.2939 95.2821 17.8256 103 18.0147C141.91 18.9679 181.174 18.2517 220 20.9105C234.863 21.9283 250.101 21 265 21C273.741 21 281.916 20.2273 290 24L290 0L0 0z"/>
<path style="fill:#ccacab; stroke:none;" d="M4.66667 18.3333C4.22223 18.7778 5.27778 18.7222 5.33333 18.6667C5.77778 18.2222 4.72222 18.2778 4.66667 18.3333z"/>
<path style="fill:#9d797a; stroke:none;" d="M6 18C7.24835 18.6848 7.54842 18.7488 9 19C7.75164 18.3152 7.45158 18.2512 6 18z"/>
<path style="fill:#6d464a; stroke:none;" d="M9 18C10.506 18.683 11.3148 18.8259 13 19C11.494 18.317 10.6852 18.1741 9 18z"/>
<path style="fill:#3d1319; stroke:none;" d="M290 24C282.133 20.6666 271.504 21.0005 263 21L219 21C170.01 21 121.027 19 72 19C53.7292 19 35.2459 19.807 17 18.8696C13.1399 18.6713 8.88685 18.4803 5.05941 19.1474C3.58817 19.4038 0.906201 20.4489 2.17593 22.4552C3.85358 25.1062 13.111 24.8341 16 24.9606C29.9865 25.5731 43.9936 25.9946 58 26C75.2815 26.0067 92.726 27.5622 110 27.9853C149.281 28.9477 188.706 28 228 28L275 28C280.122 28 288.056 29.8565 290 24z"/>
<path style="fill:#6d464a; stroke:none;" d="M14 18C15.2484 18.6848 15.5484 18.7488 17 19C15.7516 18.3152 15.4516 18.2512 14 18z"/>
<path style="fill:#9d797a; stroke:none;" d="M17 18C18.506 18.683 19.3148 18.8259 21 19C19.494 18.317 18.6852 18.1741 17 18z"/>
<path style="fill:#ccacab; stroke:none;" d="M21 18C23.3315 18.9845 25.4567 18.9813 28 19C25.6684 18.0155 23.5433 18.0187 21 18M37 18C41.2165 19.7693 46.4589 19 51 19C46.7835 17.2307 41.5411 18 37 18M61 18C65.4714 19.8763 71.1834 19 76 19C71.5286 17.1237 65.8166 18 61 18M89 18C94.7147 20.398 102.831 19 109 19C103.285 16.602 95.1692 18 89 18z"/>
<path style="fill:#856062; stroke:none;" d="M1 19L2 20L1 19z"/>
<path style="fill:#6d464a; stroke:none;" d="M123 19C129.202 21.6026 138.298 20 145 20C138.798 17.3974 129.702 19 123 19z"/>
<path style="fill:#9d797a; stroke:none;" d="M145 19C151.202 21.6026 160.298 20 167 20C160.798 17.3974 151.702 19 145 19z"/>
<path style="fill:#ccacab; stroke:none;" d="M167 19C171.471 20.8763 177.183 20 182 20C177.529 18.1237 171.817 19 167 19z"/>
<path style="fill:#c09f9e; stroke:none;" d="M0 20L1 21L0 20z"/>
<path style="fill:#6d464a; stroke:none;" d="M194 20C196.332 20.9845 198.457 20.9813 201 21C198.668 20.0155 196.543 20.0187 194 20z"/>
<path style="fill:#9d797a; stroke:none;" d="M201 20C203.613 21.0977 206.164 20.9928 209 21C206.387 19.9023 203.835 20.0072 201 20z"/>
<path style="fill:#ccacab; stroke:none;" d="M209 20C211.613 21.0977 214.165 20.9928 217 21C214.387 19.9023 211.835 20.0072 209 20z"/>
<path style="fill:#856062; stroke:none;" d="M0.333333 21.6667C0.27778 21.7222 0.222223 22.7778 0.666667 22.3333C0.722224 22.2778 0.777777 21.2222 0.333333 21.6667z"/>
<path style="fill:#6d464a; stroke:none;" d="M273 21C275.052 21.8743 276.747 21.9528 279 22C276.948 21.1258 275.253 21.0472 273 21z"/>
<path style="fill:#9d797a; stroke:none;" d="M279 21C280.506 21.6831 281.315 21.8259 283 22C281.494 21.317 280.685 21.1741 279 21z"/>
<path style="fill:#ccacab; stroke:none;" d="M283.667 21.3333C283.222 21.7777 284.278 21.7223 284.333 21.6667C284.778 21.2222 283.722 21.2778 283.667 21.3333z"/>
<path style="fill:#c09f9e; stroke:none;" d="M287 22L288 23L287 22z"/>
<path style="fill:#fcdfdb; stroke:none;" d="M0 23L0 48L290 48L290 28C282.799 29.0276 275.294 27.7199 268 28.0394C245.955 29.0047 224.038 28.9583 202 28.4552C159.34 27.4815 116.616 30.0079 74 27.0895C59.859 26.1211 45.1619 26 31 26C21.0355 26 9.4106 26.4298 0 23z"/>
<path style="fill:#6d464a; stroke:none;" d="M1 23L2 24L1 23z"/>
<path style="fill:#856062; stroke:none;" d="M288 23L289 24L288 23z"/>
<path style="fill:#b49392; stroke:none;" d="M3.66667 24.3333C3.22222 24.7778 4.27778 24.7222 4.33333 24.6667C4.77777 24.2222 3.72222 24.2778 3.66667 24.3333z"/>
<path style="fill:#9d797a; stroke:none;" d="M5 24C6.24835 24.6848 6.54842 24.7488 8 25C6.75164 24.3152 6.45158 24.2512 5 24z"/>
<path style="fill:#6d464a; stroke:none;" d="M8 24C9.50604 24.683 10.3148 24.8259 12 25C10.494 24.317 9.68521 24.1741 8 24z"/>
<path style="fill:#856062; stroke:none;" d="M87.6667 24.3333C87.2222 24.7778 88.2778 24.7222 88.3333 24.6667C88.7778 24.2222 87.7222 24.2778 87.6667 24.3333z"/>
<path style="fill:#ccacab; stroke:none;" d="M17 25C19.0521 25.8742 20.7472 25.9528 23 26C20.9479 25.1258 19.2528 25.0472 17 25z"/>
<path style="fill:#9d797a; stroke:none;" d="M23 25C25.3315 25.9845 27.4567 25.9813 30 26C27.6684 25.0155 25.5433 25.0187 23 25z"/>
<path style="fill:#6d464a; stroke:none;" d="M30 25C32.3316 25.9845 34.4567 25.9813 37 26C34.6684 25.0155 32.5433 25.0187 30 25z"/>
<path style="fill:#ccacab; stroke:none;" d="M45 26C47.3316 26.9845 49.4567 26.9813 52 27C49.6684 26.0155 47.5433 26.0187 45 26z"/>
<path style="fill:#9d797a; stroke:none;" d="M52 26C54.6127 27.0977 57.1645 26.9928 60 27C57.3873 25.9023 54.8355 26.0072 52 26z"/>
<path style="fill:#6d464a; stroke:none;" d="M60 26C62.6127 27.0977 65.1645 26.9928 68 27C65.3873 25.9023 62.8355 26.0072 60 26z"/>
<path style="fill:#ccacab; stroke:none;" d="M77 27C79.6127 28.0977 82.1645 27.9928 85 28C82.3873 26.9023 79.8355 27.0072 77 27z"/>
<path style="fill:#9d797a; stroke:none;" d="M85 27C88.1633 28.3274 91.5856 27.9996 95 28C91.8367 26.6726 88.4144 27.0004 85 27z"/>
<path style="fill:#6d464a; stroke:none;" d="M95 27C98.1633 28.3274 101.586 27.9996 105 28C101.837 26.6726 98.4144 27.0004 95 27M289 27L290 28L289 27z"/>
<path style="fill:#ccacab; stroke:none;" d="M116 28C120.215 29.7687 125.465 29 130 29L158 29C153.785 27.2312 148.536 28 144 28L116 28z"/>
<path style="fill:#9d797a; stroke:none;" d="M158 28C161.699 29.552 166.017 29 170 29L193 29C189.301 27.448 184.983 28 181 28L158 28z"/>
<path style="fill:#ccacab; stroke:none;" d="M193 28C195.332 28.9845 197.457 28.9813 200 29C197.668 28.0155 195.543 28.0187 193 28M203 28C208.959 30.5005 217.564 29 224 29C218.041 26.4995 209.436 28 203 28M228 28C231.959 29.6611 236.74 29 241 29L264 29C260.041 27.3389 255.26 28 251 28L228 28M284 28C285.506 28.683 286.315 28.8259 288 29C286.494 28.317 285.685 28.1741 284 28z"/>
</svg>
