<?xml version="1.0" standalone="yes"?>
<svg xmlns="http://www.w3.org/2000/svg" width="336" height="48">
<path style="fill:#fff5fe; stroke:none;" d="M0 0L0 48L336 48L336 0L0 0z"/>
<path style="fill:#f1d5c3; stroke:none;" d="M47 16C48.506 16.683 49.3148 16.8259 51 17C49.494 16.317 48.6852 16.1741 47 16z"/>
<path style="fill:#eac5a6; stroke:none;" d="M45 17L46 18L45 17z"/>
<path style="fill:#c67412; stroke:none;" d="M11 24L11 26C19.3388 26.023 27.8852 27.4225 36 29.3364C40.3273 30.357 44.5151 32.6341 49 32.8565C63.0599 33.5535 77.9124 30.6562 92 30.0394C121.989 28.7262 152.021 28.3521 182 27.0394C202.901 26.1241 224.098 26 245 26C257.152 26 270.024 27.2234 282 25C274.601 21.895 263.007 24 255 24C236.276 24 217.713 23 199 23C163.735 23 128.227 21.5032 93 19.9606C78.7726 19.3376 64.2237 16.9079 50 17.0826C45.5018 17.1378 41.3236 19.3173 37 20.3457C28.5157 22.3637 19.7329 23.9759 11 24z"/>
<path style="fill:#d4944d; stroke:none;" d="M54 17C55.2484 17.6848 55.5484 17.7488 57 18C55.7516 17.3152 55.4516 17.2512 54 17z"/>
<path style="fill:#e3b588; stroke:none;" d="M57 17C58.5061 17.683 59.3148 17.8259 61 18C59.494 17.317 58.6852 17.1741 57 17z"/>
<path style="fill:#f1d5c3; stroke:none;" d="M61 17C62.5061 17.683 63.3148 17.8259 65 18C63.4939 17.317 62.6852 17.1741 61 17z"/>
<path style="fill:#dfac79; stroke:none;" d="M43 18L44 19L43 18z"/>
<path style="fill:#d4944d; stroke:none;" d="M69 18C70.5061 18.683 71.3148 18.8259 73 19C71.494 18.317 70.6852 18.1741 69 18z"/>
<path style="fill:#e3b588; stroke:none;" d="M73 18C74.769 18.7789 76.0359 18.9124 78 19C76.231 18.2211 74.964 18.0876 73 18z"/>
<path style="fill:#f1d5c3; stroke:none;" d="M78 18C79.769 18.7789 81.0359 18.9124 83 19C81.2309 18.2211 79.9641 18.0876 78 18z"/>
<path style="fill:#dba46b; stroke:none;" d="M39.6667 19.3333C39.2222 19.7778 40.2778 19.7222 40.3333 19.6667C40.7778 19.2222 39.7222 19.2778 39.6667 19.3333z"/>
<path style="fill:#d4944d; stroke:none;" d="M88 19C89.769 19.7789 91.0359 19.9124 93 20C91.2309 19.2211 89.9641 19.0876 88 19z"/>
<path style="fill:#e3b588; stroke:none;" d="M93 19C95.0521 19.8742 96.7472 19.9528 99 20C96.9479 19.1258 95.2528 19.0472 93 19z"/>
<path style="fill:#f1d5c3; stroke:none;" d="M99 19C101.052 19.8742 102.747 19.9528 105 20C102.948 19.1257 101.253 19.0472 99 19z"/>
<path style="fill:#e6bd97; stroke:none;" d="M34 20C35.2483 20.6848 35.5484 20.7488 37 21C35.7516 20.3152 35.4516 20.2512 34 20z"/>
<path style="fill:#d4944d; stroke:none;" d="M112 20C114.332 20.9845 116.457 20.9813 119 21C116.668 20.0155 114.543 20.0187 112 20z"/>
<path style="fill:#e3b588; stroke:none;" d="M119 20C121.332 20.9845 123.457 20.9813 126 21C123.668 20.0155 121.543 20.0187 119 20z"/>
<path style="fill:#f1d5c3; stroke:none;" d="M126 20C128.613 21.0977 131.165 20.9928 134 21C131.387 19.9023 128.835 20.0072 126 20z"/>
<path style="fill:#dba46b; stroke:none;" d="M30.6667 21.3333C30.2222 21.7778 31.2778 21.7222 31.3333 21.6667C31.7778 21.2222 30.7222 21.2778 30.6667 21.3333z"/>
<path style="fill:#d4944d; stroke:none;" d="M142 21C144.613 22.0977 147.164 21.9928 150 22C147.387 20.9023 144.835 21.0072 142 21z"/>
<path style="fill:#e3b588; stroke:none;" d="M150 21C152.89 22.2129 155.874 21.9983 159 22C156.11 20.787 153.126 21.0017 150 21z"/>
<path style="fill:#f1d5c3; stroke:none;" d="M159 21C162.163 22.3274 165.586 21.9996 169 22C165.837 20.6726 162.414 21.0004 159 21z"/>
<path style="fill:#eac5a6; stroke:none;" d="M22 22C23.2484 22.6848 23.5484 22.7488 25 23C23.7516 22.3152 23.4516 22.2512 22 22z"/>
<path style="fill:#d4944d; stroke:none;" d="M25.6667 22.3333C25.2222 22.7778 26.2778 22.7222 26.3333 22.6667C26.7778 22.2222 25.7222 22.2778 25.6667 22.3333M179 22C182.163 23.3274 185.586 22.9996 189 23C185.837 21.6726 182.414 22.0004 179 22z"/>
<path style="fill:#e3b588; stroke:none;" d="M189 22C192.432 23.4403 196.3 23 200 23C196.568 21.5597 192.7 22 189 22z"/>
<path style="fill:#f1d5c3; stroke:none;" d="M200 22C203.697 23.5515 208.017 23 212 23C208.303 21.4485 203.983 22 200 22M13 23C14.2484 23.6848 14.5484 23.7488 16 24C14.7516 23.3152 14.4516 23.2512 13 23z"/>
<path style="fill:#dba46b; stroke:none;" d="M16.6667 23.3333C16.2222 23.7778 17.2778 23.7222 17.3333 23.6667C17.7778 23.2222 16.7222 23.2778 16.6667 23.3333z"/>
<path style="fill:#d18c3e; stroke:none;" d="M18.6667 23.3333C18.2222 23.7778 19.2778 23.7222 19.3333 23.6667C19.7778 23.2222 18.7222 23.2778 18.6667 23.3333z"/>
<path style="fill:#d4944d; stroke:none;" d="M224 23C228.216 24.7693 233.459 24 238 24C233.783 22.2307 228.541 23 224 23z"/>
<path style="fill:#e3b588; stroke:none;" d="M238 23C241.959 24.6611 246.737 24 251 24C247.041 22.3389 242.263 23 238 23z"/>
<path style="fill:#f1d5c3; stroke:none;" d="M251 23C255.471 24.8763 261.183 24 266 24C261.529 22.1237 255.817 23 251 23M2 24C3.54304 25.2667 4.04779 25.4892 6 26C4.45696 24.7333 3.95221 24.5108 2 24z"/>
<path style="fill:#e3b588; stroke:none;" d="M5 24C6.54305 25.2667 7.04779 25.4892 9 26C7.45696 24.7333 6.95221 24.5108 5 24z"/>
<path style="fill:#d4944d; stroke:none;" d="M8 24C9.22278 25.1952 9.42 25.3164 11 26C10.0198 24.2167 10.0924 24.4057 8 24M279 25C284.372 27.2544 292.417 26.3293 298 25C292.474 22.6814 284.773 23.9283 279 25z"/>
<path style="fill:#e3b588; stroke:none;" d="M296 25C301.572 27.3383 310.204 26.3798 316 25C310.428 22.6617 301.796 23.6202 296 25z"/>
<path style="fill:#f1d5c3; stroke:none;" d="M314 25C319.385 27.2595 328.464 26.6364 334 25C328.428 22.6617 319.796 23.6202 314 25z"/>
<path style="fill:#edcdb4; stroke:none;" d="M14.6667 26.3333C14.2222 26.7778 15.2778 26.7222 15.3333 26.6667C15.7778 26.2222 14.7222 26.2778 14.6667 26.3333z"/>
<path style="fill:#e3b588; stroke:none;" d="M16.6667 26.3333C16.2222 26.7778 17.2778 26.7222 17.3333 26.6667C17.7778 26.2222 16.7222 26.2778 16.6667 26.3333z"/>
<path style="fill:#d4944d; stroke:none;" d="M18.6667 26.3333C18.2222 26.7778 19.2778 26.7222 19.3333 26.6667C19.7778 26.2222 18.7222 26.2778 18.6667 26.3333M222 26C225.959 27.6611 230.737 27 235 27C231.041 25.3389 226.263 26 222 26z"/>
<path style="fill:#e3b588; stroke:none;" d="M235 26C239.217 27.7693 244.459 27 249 27C244.783 25.2307 239.541 26 235 26z"/>
<path style="fill:#f1d5c3; stroke:none;" d="M249 26C253.471 27.8763 259.183 27 264 27C259.529 25.1237 253.817 26 249 26z"/>
<path style="fill:#edcdb4; stroke:none;" d="M22.6667 27.3333C22.2222 27.7778 23.2778 27.7222 23.3333 27.6667C23.7778 27.2222 22.7222 27.2778 22.6667 27.3333z"/>
<path style="fill:#dba46b; stroke:none;" d="M24 27C25.2484 27.6848 25.5484 27.7488 27 28C25.7516 27.3152 25.4516 27.2512 24 27z"/>
<path style="fill:#d4944d; stroke:none;" d="M177 27C180.432 28.4403 184.3 28 188 28C184.568 26.5597 180.7 27 177 27z"/>
<path style="fill:#e3b588; stroke:none;" d="M188 27C191.432 28.4403 195.3 28 199 28C195.568 26.5597 191.7 27 188 27z"/>
<path style="fill:#f1d5c3; stroke:none;" d="M199 27C202.432 28.4403 206.3 28 210 28C206.568 26.5597 202.7 27 199 27z"/>
<path style="fill:#e6bd97; stroke:none;" d="M29 28C30.2484 28.6848 30.5484 28.7488 32 29C30.7516 28.3152 30.4516 28.2512 29 28z"/>
<path style="fill:#d4944d; stroke:none;" d="M140 28C142.89 29.2129 145.874 28.9983 149 29C146.11 27.787 143.126 28.0017 140 28z"/>
<path style="fill:#e3b588; stroke:none;" d="M149 28C151.89 29.2129 154.874 28.9983 158 29C155.11 27.787 152.126 28.0017 149 28z"/>
<path style="fill:#f1d5c3; stroke:none;" d="M158 28C160.89 29.2129 163.874 28.9983 167 29C164.11 27.787 161.126 28.0017 158 28z"/>
<path style="fill:#eac5a6; stroke:none;" d="M34.6667 29.3333C34.2222 29.7778 35.2778 29.7222 35.3333 29.6667C35.7778 29.2222 34.7222 29.2778 34.6667 29.3333z"/>
<path style="fill:#d18c3e; stroke:none;" d="M36.6667 29.3333C36.2222 29.7778 37.2778 29.7222 37.3333 29.6667C37.7778 29.2222 36.7222 29.2778 36.6667 29.3333z"/>
<path style="fill:#d4944d; stroke:none;" d="M111 29C113.332 29.9845 115.457 29.9813 118 30C115.668 29.0155 113.543 29.0187 111 29z"/>
<path style="fill:#e3b588; stroke:none;" d="M118 29C120.332 29.9845 122.457 29.9813 125 30C122.668 29.0155 120.543 29.0187 118 29z"/>
<path style="fill:#f1d5c3; stroke:none;" d="M125 29C127.332 29.9845 129.457 29.9813 132 30C129.668 29.0155 127.543 29.0187 125 29z"/>
<path style="fill:#edcdb4; stroke:none;" d="M39 30L40 31L39 30z"/>
<path style="fill:#d4944d; stroke:none;" d="M87 30C88.769 30.7789 90.0359 30.9124 92 31C90.231 30.2211 88.9641 30.0876 87 30z"/>
<path style="fill:#e3b588; stroke:none;" d="M92 30C94.0521 30.8742 95.7472 30.9528 98 31C95.9479 30.1258 94.2528 30.0472 92 30z"/>
<path style="fill:#f1d5c3; stroke:none;" d="M98 30C100.052 30.8742 101.747 30.9528 104 31C101.948 30.1257 100.253 30.0472 98 30z"/>
<path style="fill:#dfac79; stroke:none;" d="M43 31L44 32L43 31z"/>
<path style="fill:#d4944d; stroke:none;" d="M68 31C69.506 31.683 70.3148 31.8259 72 32C70.494 31.317 69.6852 31.1741 68 31z"/>
<path style="fill:#e3b588; stroke:none;" d="M72 31C73.769 31.7789 75.0359 31.9124 77 32C75.2309 31.2211 73.9641 31.0876 72 31z"/>
<path style="fill:#f1d5c3; stroke:none;" d="M77 31C78.769 31.7789 80.0359 31.9124 82 32C80.231 31.2211 78.9641 31.0876 77 31z"/>
<path style="fill:#edcdb4; stroke:none;" d="M45 32L46 33L45 32z"/>
<path style="fill:#d4944d; stroke:none;" d="M53 32C54.506 32.683 55.3148 32.8259 57 33C55.494 32.317 54.6852 32.1741 53 32z"/>
<path style="fill:#e3b588; stroke:none;" d="M57 32C58.2484 32.6848 58.5484 32.7488 60 33C58.7517 32.3152 58.4516 32.2512 57 32z"/>
<path style="fill:#f1d5c3; stroke:none;" d="M60 32C61.506 32.683 62.3148 32.8259 64 33C62.494 32.317 61.6852 32.1741 60 32M47 33C48.2484 33.6848 48.5484 33.7488 50 34C48.7517 33.3152 48.4516 33.2512 47 33z"/>
</svg>
