<?xml version="1.0" standalone="yes"?>
<svg xmlns="http://www.w3.org/2000/svg" width="333" height="48">
<path style="fill:#fff5fe; stroke:none;" d="M0 0L0 48L333 48L333 28C290.594 28 248.319 28.9486 206 29.9853C183.32 30.541 160.657 30.0472 138 31.0394C120.39 31.8105 102.593 31.8848 85 33.0895C73.4444 33.8808 61.5976 35.5112 50 35.3657C45.2664 35.3064 40.6312 32.7499 36 31.8071C24.869 29.5411 13.3525 28 2 28L2 26C13.0191 26 24.172 24.6169 35 22.5394C40.0239 21.5754 44.8581 18.85 50 18.7855C69.2689 18.5439 88.7618 21.1182 108 21.9606C146.516 23.6472 185.457 25 224 25C246.725 25 269.296 26 292 26C305.118 26 320.21 23.9549 333 27L333 0L0 0z"/>
<path style="fill:#dbcbf2; stroke:none;" d="M47 18C48.2484 18.6848 48.5484 18.7488 50 19C48.7516 18.3152 48.4516 18.2512 47 18z"/>
<path style="fill:#b7a1e5; stroke:none;" d="M45 19L46 20L45 19z"/>
<path style="fill:#6e4ccc; stroke:none;" d="M10 26L10 28C19.3542 28.0258 28.8866 29.969 38 32.0147C42.0174 32.9165 45.8291 34.8662 50 34.9174C57.5882 35.0106 65.4233 33.6084 73 33.0895C87.6121 32.0889 102.375 31.6798 117 31.0394C171.895 28.6356 227.006 28 282 28C275.549 24.1357 265.307 26 258 26C239.948 26 222.012 25 204 25C166.699 25 129.248 23.5917 92 21.9606C78.0401 21.3494 63.9623 19.306 50 19.1327C45.4967 19.0768 41.3304 21.3595 37 22.3349C28.1686 24.3241 19.0703 25.975 10 26z"/>
<path style="fill:#9276d9; stroke:none;" d="M53 19C54.2484 19.6848 54.5484 19.7488 56 20C54.7516 19.3152 54.4516 19.2512 53 19z"/>
<path style="fill:#b7a1e5; stroke:none;" d="M56 19C57.506 19.683 58.3148 19.8259 60 20C58.4939 19.317 57.6852 19.1741 56 19z"/>
<path style="fill:#dbcbf2; stroke:none;" d="M60 19C61.506 19.683 62.3148 19.8259 64 20C62.494 19.317 61.6852 19.1741 60 19z"/>
<path style="fill:#9b81dc; stroke:none;" d="M42.6667 20.3333C42.2222 20.7778 43.2778 20.7222 43.3333 20.6667C43.7778 20.2222 42.7222 20.2778 42.6667 20.3333z"/>
<path style="fill:#9276d9; stroke:none;" d="M68 20C69.5061 20.683 70.3148 20.8259 72 21C70.494 20.317 69.6852 20.1741 68 20z"/>
<path style="fill:#b7a1e5; stroke:none;" d="M72 20C73.769 20.7789 75.0359 20.9124 77 21C75.231 20.2211 73.9641 20.0876 72 20z"/>
<path style="fill:#dbcbf2; stroke:none;" d="M77 20C78.769 20.7789 80.0359 20.9124 82 21C80.231 20.2211 78.9641 20.0876 77 20z"/>
<path style="fill:#9b81dc; stroke:none;" d="M39.6667 21.3333C39.2222 21.7778 40.2778 21.7222 40.3333 21.6667C40.7778 21.2222 39.7222 21.2778 39.6667 21.3333z"/>
<path style="fill:#9276d9; stroke:none;" d="M87 21C88.769 21.7789 90.0359 21.9124 92 22C90.231 21.2211 88.9641 21.0876 87 21z"/>
<path style="fill:#b7a1e5; stroke:none;" d="M92 21C94.0521 21.8742 95.7472 21.9528 98 22C95.9479 21.1258 94.2528 21.0472 92 21z"/>
<path style="fill:#dbcbf2; stroke:none;" d="M98 21C100.052 21.8742 101.747 21.9528 104 22C101.948 21.1257 100.253 21.0472 98 21z"/>
<path style="fill:#9b81dc; stroke:none;" d="M35.6667 22.3333C35.2222 22.7778 36.2778 22.7222 36.3333 22.6667C36.7778 22.2222 35.7222 22.2778 35.6667 22.3333z"/>
<path style="fill:#9276d9; stroke:none;" d="M111 22C113.052 22.8742 114.747 22.9528 117 23C114.948 22.1257 113.253 22.0472 111 22z"/>
<path style="fill:#b7a1e5; stroke:none;" d="M117 22C119.613 23.0977 122.165 22.9928 125 23C122.387 21.9023 119.835 22.0072 117 22z"/>
<path style="fill:#dbcbf2; stroke:none;" d="M125 22C127.332 22.9845 129.457 22.9813 132 23C129.668 22.0155 127.543 22.0187 125 22z"/>
<path style="fill:#d2c0ee; stroke:none;" d="M28 23C29.2483 23.6848 29.5484 23.7488 31 24C29.7516 23.3152 29.4516 23.2512 28 23z"/>
<path style="fill:#9276d9; stroke:none;" d="M140 23C142.89 24.2129 145.874 23.9983 149 24C146.11 22.787 143.126 23.0017 140 23z"/>
<path style="fill:#b7a1e5; stroke:none;" d="M149 23C151.89 24.2129 154.874 23.9983 158 24C155.11 22.787 152.126 23.0017 149 23z"/>
<path style="fill:#dbcbf2; stroke:none;" d="M158 23C160.89 24.2129 163.874 23.9983 167 24C164.11 22.787 161.126 23.0017 158 23z"/>
<path style="fill:#c0abe8; stroke:none;" d="M22 24C23.2484 24.6848 23.5484 24.7488 25 25C23.7516 24.3152 23.4516 24.2512 22 24z"/>
<path style="fill:#896cd5; stroke:none;" d="M25.6667 24.3333C25.2222 24.7778 26.2778 24.7222 26.3333 24.6667C26.7778 24.2222 25.7222 24.2778 25.6667 24.3333z"/>
<path style="fill:#9276d9; stroke:none;" d="M177 24C180.163 25.3274 183.586 24.9996 187 25C183.837 23.6726 180.414 24.0004 177 24z"/>
<path style="fill:#b7a1e5; stroke:none;" d="M187 24C190.432 25.4403 194.3 25 198 25C194.568 23.5597 190.7 24 187 24z"/>
<path style="fill:#dbcbf2; stroke:none;" d="M198 24C201.697 25.5515 206.017 25 210 25C206.303 23.4485 201.983 24 198 24M13.6667 25.3333C13.2222 25.7778 14.2778 25.7222 14.3333 25.6667C14.7778 25.2222 13.7222 25.2778 13.6667 25.3333z"/>
<path style="fill:#b7a1e5; stroke:none;" d="M15.6667 25.3333C15.2222 25.7778 16.2778 25.7222 16.3333 25.6667C16.7778 25.2222 15.7222 25.2778 15.6667 25.3333z"/>
<path style="fill:#9276d9; stroke:none;" d="M17.6667 25.3333C17.2222 25.7778 18.2778 25.7222 18.3333 25.6667C18.7778 25.2222 17.7222 25.2778 17.6667 25.3333M222 25C225.959 26.6611 230.737 26 235 26C231.041 24.3389 226.263 25 222 25z"/>
<path style="fill:#b7a1e5; stroke:none;" d="M235 25C239.217 26.7693 244.459 26 249 26C244.783 24.2307 239.541 25 235 25z"/>
<path style="fill:#dbcbf2; stroke:none;" d="M249 25C253.471 26.8763 259.183 26 264 26C259.529 24.1237 253.817 25 249 25M2 26L2 28L5 28L5 26L2 26z"/>
<path style="fill:#b7a1e5; stroke:none;" d="M5 28C6.58 27.3164 6.77722 27.1952 8 26C5.90759 26.4057 5.98024 26.2167 5 28z"/>
<path style="fill:#9276d9; stroke:none;" d="M7 28C9.09241 27.5943 9.01976 27.7833 10 26C8.42 26.6836 8.22278 26.8048 7 28M279 26C284.405 29.238 291.891 28 298 28C292.923 24.5314 284.952 26 279 26z"/>
<path style="fill:#b7a1e5; stroke:none;" d="M296 26C301.267 29.598 309.821 28 316 28C310.733 24.402 302.179 26 296 26z"/>
<path style="fill:#dbcbf2; stroke:none;" d="M314 26C319.077 29.4687 327.048 28 333 28C328.213 24.3733 319.819 26 314 26M13.6667 28.3333C13.2222 28.7778 14.2778 28.7222 14.3333 28.6667C14.7778 28.2222 13.7222 28.2778 13.6667 28.3333z"/>
<path style="fill:#b7a1e5; stroke:none;" d="M15.6667 28.3333C15.2222 28.7778 16.2778 28.7222 16.3333 28.6667C16.7778 28.2222 15.7222 28.2778 15.6667 28.3333z"/>
<path style="fill:#9276d9; stroke:none;" d="M17.6667 28.3333C17.2222 28.7778 18.2778 28.7222 18.3333 28.6667C18.7778 28.2222 17.7222 28.2778 17.6667 28.3333M224 28C227.959 29.6611 232.737 29 237 29C233.041 27.3389 228.263 28 224 28z"/>
<path style="fill:#b7a1e5; stroke:none;" d="M237 28C241.216 29.7693 246.459 29 251 29C246.783 27.2307 241.541 28 237 28z"/>
<path style="fill:#dbcbf2; stroke:none;" d="M251 28C255.471 29.8763 261.183 29 266 29C261.529 27.1237 255.817 28 251 28M21.6667 29.3333C21.2222 29.7778 22.2778 29.7222 22.3333 29.6667C22.7778 29.2222 21.7222 29.2778 21.6667 29.3333z"/>
<path style="fill:#ad96e2; stroke:none;" d="M23.6667 29.3333C23.2222 29.7778 24.2778 29.7222 24.3333 29.6667C24.7778 29.2222 23.7222 29.2778 23.6667 29.3333z"/>
<path style="fill:#9276d9; stroke:none;" d="M179 29C182.163 30.3274 185.586 29.9996 189 30C185.837 28.6726 182.414 29.0004 179 29z"/>
<path style="fill:#b7a1e5; stroke:none;" d="M189 29C192.432 30.4403 196.3 30 200 30C196.568 28.5597 192.7 29 189 29z"/>
<path style="fill:#dbcbf2; stroke:none;" d="M200 29C203.697 30.5515 208.017 30 212 30C208.303 28.4485 203.983 29 200 29z"/>
<path style="fill:#c9b6eb; stroke:none;" d="M28 30C29.2484 30.6848 29.5484 30.7488 31 31C29.7516 30.3152 29.4516 30.2512 28 30z"/>
<path style="fill:#9276d9; stroke:none;" d="M142 30C144.613 31.0977 147.164 30.9928 150 31C147.387 29.9023 144.835 30.0072 142 30z"/>
<path style="fill:#b7a1e5; stroke:none;" d="M150 30C152.89 31.2129 155.874 30.9983 159 31C156.11 29.787 153.126 30.0017 150 30z"/>
<path style="fill:#dbcbf2; stroke:none;" d="M159 30C162.163 31.3274 165.586 30.9996 169 31C165.837 29.6726 162.414 30.0004 159 30z"/>
<path style="fill:#b7a1e5; stroke:none;" d="M34.6667 31.3333C34.2222 31.7778 35.2778 31.7222 35.3333 31.6667C35.7778 31.2222 34.7222 31.2778 34.6667 31.3333z"/>
<path style="fill:#9276d9; stroke:none;" d="M112 31C114.332 31.9845 116.457 31.9813 119 32C116.668 31.0155 114.543 31.0187 112 31z"/>
<path style="fill:#b7a1e5; stroke:none;" d="M119 31C121.332 31.9845 123.457 31.9813 126 32C123.668 31.0155 121.543 31.0187 119 31z"/>
<path style="fill:#dbcbf2; stroke:none;" d="M126 31C128.613 32.0977 131.165 31.9928 134 32C131.387 30.9023 128.835 31.0072 126 31z"/>
<path style="fill:#896cd5; stroke:none;" d="M39.6667 32.3333C39.2222 32.7778 40.2778 32.7222 40.3333 32.6667C40.7778 32.2222 39.7222 32.2778 39.6667 32.3333z"/>
<path style="fill:#9276d9; stroke:none;" d="M88 32C89.769 32.7789 91.0359 32.9124 93 33C91.2309 32.2211 89.9641 32.0876 88 32z"/>
<path style="fill:#b7a1e5; stroke:none;" d="M93 32C95.0521 32.8742 96.7472 32.9528 99 33C96.9479 32.1258 95.2528 32.0472 93 32z"/>
<path style="fill:#dbcbf2; stroke:none;" d="M99 32C101.052 32.8742 102.747 32.9528 105 33C102.948 32.1257 101.253 32.0472 99 32z"/>
<path style="fill:#9b81dc; stroke:none;" d="M42.6667 33.3333C42.2222 33.7778 43.2778 33.7222 43.3333 33.6667C43.7778 33.2222 42.7222 33.2778 42.6667 33.3333z"/>
<path style="fill:#9276d9; stroke:none;" d="M69 33C70.5061 33.683 71.3148 33.8259 73 34C71.494 33.317 70.6852 33.1741 69 33z"/>
<path style="fill:#b7a1e5; stroke:none;" d="M73 33C74.769 33.7789 76.0359 33.9124 78 34C76.231 33.2211 74.964 33.0876 73 33z"/>
<path style="fill:#dbcbf2; stroke:none;" d="M78 33C79.5061 33.683 80.3148 33.8259 82 34C80.494 33.317 79.6852 33.1741 78 33z"/>
<path style="fill:#b7a1e5; stroke:none;" d="M45 34L46 35L45 34z"/>
<path style="fill:#9276d9; stroke:none;" d="M54 34C55.2484 34.6848 55.5484 34.7488 57 35C55.7517 34.3152 55.4516 34.2512 54 34z"/>
<path style="fill:#b7a1e5; stroke:none;" d="M57 34C58.506 34.683 59.3148 34.8259 61 35C59.494 34.317 58.6852 34.1741 57 34z"/>
<path style="fill:#dbcbf2; stroke:none;" d="M61 34C62.2484 34.6848 62.5484 34.7488 64 35C62.7517 34.3152 62.4516 34.2512 61 34M47 35C48.506 35.683 49.3148 35.8259 51 36C49.494 35.317 48.6852 35.1741 47 35z"/>
</svg>
