<?xml version="1.0" standalone="yes"?>
<svg xmlns="http://www.w3.org/2000/svg" width="390" height="48">
<path style="fill:#fdfffd; stroke:none;" d="M0 0L0 17C6.41477 14.7152 13.2586 16 20 16C31.1442 16 41.8639 15.473 53 15.9606C87.0239 17.4505 120.929 15.5773 155 17.9105C185.543 20.0021 216.57 17.3718 247 16.0394C271.341 14.9735 295.74 16.9906 320 17C343.1 17.0089 367.249 13.5683 390 19L390 0L0 0z"/>
<path style="fill:#a0cc9d; stroke:none;" d="M3 15C4.24835 15.6848 4.54843 15.7488 6 16C4.75164 15.3152 4.45158 15.2512 3 15z"/>
<path style="fill:#d0e6ce; stroke:none;" d="M6.66667 15.3333C6.22222 15.7778 7.27778 15.7222 7.33333 15.6667C7.77778 15.2222 6.72223 15.2778 6.66667 15.3333M32 15C33.2483 15.6848 33.5484 15.7488 35 16C33.7516 15.3152 33.4516 15.2512 32 15z"/>
<path style="fill:#a5cf9f; stroke:none;" d="M35 15C38.1633 16.3274 41.5856 15.9996 45 16C41.8367 14.6726 38.4144 15.0004 35 15z"/>
<path style="fill:#d0e6ce; stroke:none;" d="M45 15C46.5061 15.683 47.3148 15.8259 49 16C47.494 15.317 46.6852 15.1741 45 15z"/>
<path style="fill:#87bd83; stroke:none;" d="M1 16L2 17L1 16z"/>
<path style="fill:#489b40; stroke:none;" d="M40 16C34.5929 16 29.3709 16.7255 24 16.9606C20.0434 17.1339 15.935 17.1786 12 16.7145C9.32747 16.3993 5.89577 15.3516 3.3179 16.6042C-0.147924 18.2881 0.856653 24.1813 3.43364 26.2184C5.84441 28.124 9.20099 27.0498 12 27.2083C18.5674 27.5804 24.4418 27.3402 31 27.0394C33.2648 26.9355 36.4785 27.4914 38.3966 25.9722C40.9153 23.9774 39.9997 18.8188 40 16z"/>
<path style="fill:#71b16d; stroke:none;" d="M10 16C11.2484 16.6848 11.5484 16.7488 13 17C11.7516 16.3152 11.4516 16.2512 10 16z"/>
<path style="fill:#a0cc9d; stroke:none;" d="M13 16C14.2483 16.6848 14.5484 16.7488 16 17C14.7516 16.3152 14.4516 16.2512 13 16z"/>
<path style="fill:#d0e6ce; stroke:none;" d="M16 16C19.4324 17.4403 23.2998 17 27 17C23.5676 15.5597 19.7002 16 16 16z"/>
<path style="fill:#a0cc9d; stroke:none;" d="M27.6667 16.3333C27.2222 16.7778 28.2778 16.7222 28.3333 16.6667C28.7778 16.2222 27.7222 16.2778 27.6667 16.3333z"/>
<path style="fill:#57a848; stroke:none;" d="M40 16L40 26C52.5551 26.9908 65.4018 27.9917 78 28L78 17L40 16z"/>
<path style="fill:#7ab871; stroke:none;" d="M53 16C54.5061 16.683 55.3148 16.8259 57 17C55.494 16.317 54.6852 16.1741 53 16z"/>
<path style="fill:#abd4a3; stroke:none;" d="M57 16C58.769 16.7789 60.0359 16.9124 62 17C60.231 16.2211 58.9641 16.0876 57 16z"/>
<path style="fill:#d5ead0; stroke:none;" d="M62 16C64.3316 16.9845 66.4567 16.9813 69 17C66.6684 16.0155 64.5433 16.0187 62 16M85 16C87.3316 16.9845 89.4566 16.9813 92 17C89.6684 16.0155 87.5434 16.0187 85 16z"/>
<path style="fill:#abd4a3; stroke:none;" d="M92 16C93.5061 16.683 94.3148 16.8259 96 17C94.494 16.317 93.6852 16.1741 92 16z"/>
<path style="fill:#86c279; stroke:none;" d="M96 16C98.3315 16.9845 100.457 16.9813 103 17C100.668 16.0155 98.5434 16.0187 96 16z"/>
<path style="fill:#5eae4c; stroke:none;" d="M78 17L78 28C90.1084 25.7521 103.681 26 116 26L116 16L78 17z"/>
<path style="fill:#8dc97c; stroke:none;" d="M116 16C121.469 18.295 129.099 17 135 17C129.531 14.705 121.901 16 116 16z"/>
<path style="fill:#b3dba7; stroke:none;" d="M135 16C136.248 16.6848 136.548 16.7488 138 17C136.752 16.3152 136.452 16.2512 135 16z"/>
<path style="fill:#e2f4db; stroke:none;" d="M138.667 16.3333C138.222 16.7778 139.278 16.7222 139.333 16.6667C139.778 16.2222 138.722 16.2778 138.667 16.3333z"/>
<path style="fill:#e0f4d6; stroke:none;" d="M242 16C243.769 16.779 245.036 16.9124 247 17C245.231 16.2211 243.964 16.0876 242 16z"/>
<path style="fill:#c9edb3; stroke:none;" d="M247 16C249.052 16.8742 250.747 16.9528 253 17C250.948 16.1257 249.253 16.0472 247 16z"/>
<path style="fill:#abe28a; stroke:none;" d="M253 16C255.613 17.0977 258.164 16.9928 261 17C258.387 15.9023 255.836 16.0072 253 16z"/>
<path style="fill:#90d867; stroke:none;" d="M223 18L223 28C236.18 27.4341 249.928 26.6521 263 25L263 16C250.295 18.3587 235.928 18 223 18z"/>
<path style="fill:#99e06b; stroke:none;" d="M263 16L263 25L290 25L290 16L263 16z"/>
<path style="fill:#a8ec73; stroke:none;" d="M290 16L290 25L330 25L330 18C323.937 18 318.025 17.1623 312 17.0147C304.673 16.8352 297.179 17.7091 290 16z"/>
<path style="fill:#b6e995; stroke:none;" d="M291 16C293.89 17.2129 296.874 16.9983 300 17C297.11 15.7871 294.126 16.0017 291 16z"/>
<path style="fill:#d0f4b6; stroke:none;" d="M300 16C302.052 16.8743 303.747 16.9528 306 17C303.948 16.1258 302.253 16.0472 300 16z"/>
<path style="fill:#e5f8d9; stroke:none;" d="M306 16C307.769 16.7789 309.036 16.9124 311 17C309.231 16.2211 307.964 16.0876 306 16z"/>
<path style="fill:#ebfedc; stroke:none;" d="M344 16C347.163 17.3274 350.586 16.9996 354 17C350.837 15.6726 347.414 16.0004 344 16z"/>
<path style="fill:#d6f9ba; stroke:none;" d="M354 16C356.052 16.8743 357.747 16.9528 360 17C357.948 16.1258 356.253 16.0472 354 16z"/>
<path style="fill:#ebfedc; stroke:none;" d="M360 16C362.613 17.0977 365.165 16.9928 368 17C365.387 15.9023 362.836 16.0072 360 16z"/>
<path style="fill:#d0e6ce; stroke:none;" d="M0 17L0 23C0.951106 20.7147 0.951106 19.2853 0 17z"/>
<path style="fill:#6bb953; stroke:none;" d="M116 17L116 26L150 27C149.998 23.514 149.99 20.35 149 17C139.048 19.2869 126.346 17 116 17z"/>
<path style="fill:#92ce7d; stroke:none;" d="M141 17C143.332 17.9845 145.457 17.9813 148 18C145.668 17.0155 143.543 17.0187 141 17z"/>
<path style="fill:#b0dd9d; stroke:none;" d="M149 17C150.248 17.6848 150.548 17.7488 152 18C150.752 17.3152 150.452 17.2512 149 17z"/>
<path style="fill:#e0f4d6; stroke:none;" d="M227 17C228.248 17.6848 228.548 17.7488 230 18C228.752 17.3152 228.452 17.2512 227 17z"/>
<path style="fill:#c5eab1; stroke:none;" d="M230 17C231.506 17.683 232.315 17.8259 234 18C232.494 17.3169 231.685 17.1741 230 17z"/>
<path style="fill:#a3db88; stroke:none;" d="M234 17C235.506 17.683 236.315 17.8259 238 18C236.494 17.317 235.685 17.1741 234 17z"/>
<path style="fill:#c0f496; stroke:none;" d="M317 17C322.222 19.1914 329.368 18 335 18C329.778 15.8086 322.632 17 317 17z"/>
<path style="fill:#b2f478; stroke:none;" d="M330 18L330 25C339.083 25 347.959 23.2361 357 23.0147C368.076 22.7433 378.969 24 390 24C384.731 20.4005 374.337 21.0175 368 21L368 19C375.44 19.0616 382.597 21.3131 390 20C385.449 18.0724 379.896 18.3206 375 17.831C360.037 16.3349 344.955 16.8198 330 18z"/>
<path style="fill:#cafc9c; stroke:none;" d="M372 17C374.89 18.2129 377.874 17.9983 381 18C378.11 16.787 375.126 17.0017 372 17z"/>
<path style="fill:#75c158; stroke:none;" d="M150 18C150.002 20.4307 149.38 24.223 151.028 26.2577C152.608 28.2096 155.763 27.9649 158 27.9961C163.998 28.08 170.002 28 176 28L176 19L150 18z"/>
<path style="fill:#92ce7d; stroke:none;" d="M156 18C158.052 18.8743 159.747 18.9528 162 19C159.948 18.1258 158.253 18.0472 156 18z"/>
<path style="fill:#bce3ac; stroke:none;" d="M162 18C166.217 19.7693 171.459 19 176 19C171.783 17.2307 166.541 18 162 18z"/>
<path style="fill:#ddf1d5; stroke:none;" d="M176 18C179.699 19.552 184.017 19 188 19L208 19C204.301 17.448 199.983 18 196 18L176 18z"/>
<path style="fill:#bfe7ac; stroke:none;" d="M208 18C210.613 19.0977 213.164 18.9928 216 19C213.387 17.9023 210.835 18.0072 208 18z"/>
<path style="fill:#a3db88; stroke:none;" d="M216 18C218.052 18.8743 219.747 18.9528 222 19C219.948 18.1258 218.253 18.0472 216 18z"/>
<path style="fill:#7dc85d; stroke:none;" d="M222 18C216.564 19.6069 210.64 19 205 19L176 19L176 28L223 28C223 24.5856 223.327 21.1633 222 18z"/>
<path style="fill:#e8ffd4; stroke:none;" d="M382 18C384.332 18.9845 386.457 18.9813 389 19C386.668 18.0155 384.543 18.0187 382 18z"/>
<path style="fill:#cafc9c; stroke:none;" d="M368 19L368 21C370.85 20.9791 373.271 20.8102 376 20C373.387 18.9023 370.836 19.0072 368 19z"/>
<path style="fill:#fdfffd; stroke:none;" d="M375 20C376.248 20.6848 376.548 20.7488 378 21C376.752 20.3152 376.452 20.2512 375 20z"/>
<path style="fill:#e2fec9; stroke:none;" d="M376 21C378.393 21.7408 380.493 21.3022 383 21C380.477 20.0097 378.642 20.3831 376 21M387.667 20.3333C387.222 20.7777 388.278 20.7222 388.333 20.6667C388.778 20.2222 387.722 20.2778 387.667 20.3333z"/>
<path style="fill:#fdfffd; stroke:none;" d="M389 20C385.65 20.9905 382.486 20.9981 379 21C381.168 22.0467 390.614 24.1872 389 20M0 23L0 48L390 48L390 24C385.577 24.9618 381.475 24.0571 377 24.0039C368.341 23.9009 359.659 23.9009 351 24.0039C344.933 24.076 339.044 25.696 333 25.9606C318.391 26.6004 303.624 26 289 26C277.408 26 265.565 25.2975 254 26.0895C239.736 27.0663 225.298 28.8261 211 28.9961C173.553 29.4416 136.41 26.5588 99 27.0039C85.353 27.1662 71.7206 28.1594 58 27.9961C50.9495 27.9123 44.1026 26.4938 37 27.1698C25.2622 28.2868 9.35033 31.2464 0 23z"/>
<path style="fill:#c5f89a; stroke:none;" d="M351 23C353.332 23.9845 355.457 23.9813 358 24C355.668 23.0155 353.543 23.0187 351 23z"/>
<path style="fill:#dbfdbc; stroke:none;" d="M358 23C362.217 24.7693 367.459 24 372 24C367.783 22.2307 362.541 23 358 23z"/>
<path style="fill:#cafc9c; stroke:none;" d="M372 23C374.332 23.9845 376.457 23.9813 379 24C376.668 23.0154 374.543 23.0187 372 23z"/>
<path style="fill:#a0cc9d; stroke:none;" d="M1 24L2 25L1 24z"/>
<path style="fill:#d6f9ba; stroke:none;" d="M341 24C342.506 24.683 343.315 24.8259 345 25C343.494 24.317 342.685 24.1741 341 24z"/>
<path style="fill:#ebfedc; stroke:none;" d="M383 24C385.052 24.8743 386.747 24.9528 389 25C386.948 24.1258 385.253 24.0472 383 24z"/>
<path style="fill:#aee192; stroke:none;" d="M259 25C262.697 26.5515 267.017 26 271 26C267.303 24.4485 262.983 25 259 25z"/>
<path style="fill:#ccf1b5; stroke:none;" d="M271 25C278.169 28.0081 289.239 26 297 26C289.831 22.9919 278.761 25 271 25z"/>
<path style="fill:#bcf094; stroke:none;" d="M297 25C300.697 26.5515 305.017 26 309 26C305.303 24.4485 300.983 25 297 25z"/>
<path style="fill:#c0f496; stroke:none;" d="M323 25C326.163 26.3274 329.586 25.9996 333 26C329.837 24.6726 326.414 25.0004 323 25z"/>
<path style="fill:#e5f8d9; stroke:none;" d="M333 25C334.769 25.7789 336.036 25.9124 338 26C336.231 25.221 334.964 25.0876 333 25z"/>
<path style="fill:#7ab871; stroke:none;" d="M39 26C41.0521 26.8742 42.7472 26.9528 45 27C42.9479 26.1258 41.2528 26.0472 39 26z"/>
<path style="fill:#89c57a; stroke:none;" d="M101 26C104.432 27.4403 108.3 27 112 27C108.568 25.5597 104.7 26 101 26z"/>
<path style="fill:#b3dba7; stroke:none;" d="M112 26C116.724 27.9822 122.91 27 128 27C123.276 25.0178 117.09 26 112 26z"/>
<path style="fill:#8dc97c; stroke:none;" d="M128 26C129.769 26.7789 131.036 26.9124 133 27C131.231 26.2211 129.964 26.0876 128 26z"/>
<path style="fill:#c5eab1; stroke:none;" d="M239 26C241.052 26.8743 242.747 26.9528 245 27C242.948 26.1257 241.253 26.0472 239 26z"/>
<path style="fill:#e0f4d6; stroke:none;" d="M245 26C247.052 26.8743 248.747 26.9528 251 27C248.948 26.1258 247.253 26.0472 245 26z"/>
<path style="fill:#71b16d; stroke:none;" d="M4 27L5 28L4 27M7 27C9.61271 28.0977 12.1645 27.9928 15 28C12.3873 26.9023 9.83549 27.0072 7 27z"/>
<path style="fill:#7ab871; stroke:none;" d="M26 27C27.2484 27.6848 27.5484 27.7488 29 28C27.7516 27.3152 27.4516 27.2512 26 27z"/>
<path style="fill:#a5cf9f; stroke:none;" d="M29 27C30.2484 27.6848 30.5484 27.7488 32 28C30.7516 27.3152 30.4516 27.2512 29 27z"/>
<path style="fill:#d0e6ce; stroke:none;" d="M32 27C33.2484 27.6848 33.5484 27.7488 35 28C33.7516 27.3152 33.4516 27.2512 32 27M51 27C53.6127 28.0977 56.1645 27.9928 59 28C56.3873 26.9023 53.8355 27.0072 51 27z"/>
<path style="fill:#a5cf9f; stroke:none;" d="M59 27C61.0521 27.8742 62.7472 27.9528 65 28C62.9479 27.1258 61.2528 27.0472 59 27z"/>
<path style="fill:#80be74; stroke:none;" d="M65 27C66.5061 27.683 67.3148 27.8259 69 28C67.494 27.317 66.6852 27.1741 65 27z"/>
<path style="fill:#82c172; stroke:none;" d="M80 27C81.5061 27.683 82.3148 27.8259 84 28C82.494 27.317 81.6852 27.1741 80 27z"/>
<path style="fill:#abd4a3; stroke:none;" d="M84 27C85.2484 27.6848 85.5484 27.7488 87 28C85.7517 27.3152 85.4516 27.2512 84 27z"/>
<path style="fill:#d5ead0; stroke:none;" d="M87 27C89.0521 27.8742 90.7472 27.9528 93 28C90.9479 27.1258 89.2528 27.0472 87 27z"/>
<path style="fill:#d8edd2; stroke:none;" d="M138 27C139.506 27.683 140.315 27.8259 142 28C140.494 27.317 139.685 27.1741 138 27z"/>
<path style="fill:#b3dba7; stroke:none;" d="M142 27C143.506 27.683 144.315 27.8259 146 28C144.494 27.317 143.685 27.1741 142 27z"/>
<path style="fill:#92ce7d; stroke:none;" d="M146 27C148.052 27.8743 149.747 27.9528 152 28C149.948 27.1258 148.253 27.0472 146 27z"/>
<path style="fill:#abe28a; stroke:none;" d="M228 27C229.248 27.6848 229.548 27.7488 231 28C229.752 27.3152 229.452 27.2512 228 27z"/>
<path style="fill:#e0f4d6; stroke:none;" d="M231 27C232.506 27.683 233.315 27.8259 235 28C233.494 27.317 232.685 27.1741 231 27z"/>
<path style="fill:#ddf1d5; stroke:none;" d="M158 28C160.89 29.2129 163.874 28.9983 167 29C164.11 27.787 161.126 28.0017 158 28z"/>
<path style="fill:#bce3ac; stroke:none;" d="M167 28C170.163 29.3274 173.586 28.9996 177 29C173.837 27.6726 170.414 28.0004 167 28z"/>
<path style="fill:#9bd483; stroke:none;" d="M177 28C183.445 30.7044 193.032 29 200 29C193.555 26.2956 183.968 28 177 28z"/>
<path style="fill:#bfe7ac; stroke:none;" d="M200 28C203.163 29.3274 206.586 28.9996 210 29C206.837 27.6726 203.414 28.0004 200 28z"/>
<path style="fill:#e0f4d6; stroke:none;" d="M210 28C212.613 29.0977 215.165 28.9928 218 29C215.387 27.9023 212.835 28.0072 210 28z"/>
</svg>
