<?xml version="1.0" standalone="yes"?>
<svg xmlns="http://www.w3.org/2000/svg" width="336" height="48">
<path style="fill:#fff5fe; stroke:none;" d="M0 0L0 48L336 48L336 0L0 0z"/>
<path style="fill:#f1d5c3; stroke:none;" d="M286 14C287.248 14.6848 287.548 14.7488 289 15C287.752 14.3152 287.452 14.2512 286 14M272 15C273.506 15.683 274.315 15.8259 276 16C274.494 15.317 273.685 15.1741 272 15z"/>
<path style="fill:#e3b588; stroke:none;" d="M276 15C277.248 15.6848 277.548 15.7488 279 16C277.752 15.3153 277.451 15.2512 276 15z"/>
<path style="fill:#d4944d; stroke:none;" d="M279 15C280.506 15.6831 281.315 15.8259 283 16C281.494 15.317 280.685 15.1741 279 15z"/>
<path style="fill:#c67412; stroke:none;" d="M54 23C61.3995 26.105 72.9927 24 81 24C99.7244 24 118.287 25 137 25C172.265 25 207.773 26.4968 243 28.0394C257.227 28.6624 271.776 31.0921 286 30.9174C290.498 30.8622 294.676 28.6827 299 27.6543C307.484 25.6364 316.267 24.0241 325 24L325 22C316.658 21.977 308.093 20.6415 300 18.625C295.742 17.5639 291.399 15.367 287 15.1435C272.947 14.4297 258.082 17.344 244 17.9606C214.011 19.2738 183.979 19.6479 154 20.9606C133.099 21.8759 111.902 22 91 22C78.8481 22 65.9759 20.7767 54 23z"/>
<path style="fill:#edcdb4; stroke:none;" d="M290 15L291 16L290 15z"/>
<path style="fill:#f1d5c3; stroke:none;" d="M254 16C255.769 16.7789 257.036 16.9124 259 17C257.231 16.2211 255.964 16.0876 254 16z"/>
<path style="fill:#e3b588; stroke:none;" d="M259 16C260.769 16.7789 262.036 16.9124 264 17C262.231 16.2211 260.964 16.0876 259 16z"/>
<path style="fill:#d4944d; stroke:none;" d="M264 16C265.506 16.6831 266.315 16.8259 268 17C266.494 16.3169 265.685 16.1741 264 16z"/>
<path style="fill:#dfac79; stroke:none;" d="M292 16L293 17L292 16z"/>
<path style="fill:#f1d5c3; stroke:none;" d="M232 17C234.052 17.8743 235.747 17.9528 238 18C235.948 17.1257 234.253 17.0472 232 17z"/>
<path style="fill:#e3b588; stroke:none;" d="M238 17C240.052 17.8743 241.747 17.9528 244 18C241.948 17.1257 240.253 17.0472 238 17z"/>
<path style="fill:#d4944d; stroke:none;" d="M244 17C245.769 17.779 247.036 17.9124 249 18C247.231 17.2211 245.964 17.0876 244 17z"/>
<path style="fill:#dba46b; stroke:none;" d="M295 17L296 18L295 17z"/>
<path style="fill:#f1d5c3; stroke:none;" d="M204 18C206.332 18.9845 208.457 18.9813 211 19C208.668 18.0155 206.543 18.0187 204 18z"/>
<path style="fill:#e3b588; stroke:none;" d="M211 18C213.332 18.9845 215.457 18.9813 218 19C215.668 18.0155 213.543 18.0187 211 18z"/>
<path style="fill:#d4944d; stroke:none;" d="M218 18C220.332 18.9845 222.457 18.9813 225 19C222.668 18.0155 220.543 18.0187 218 18z"/>
<path style="fill:#eac5a6; stroke:none;" d="M299 18C300.248 18.6848 300.548 18.7488 302 19C300.752 18.3152 300.452 18.2512 299 18z"/>
<path style="fill:#f1d5c3; stroke:none;" d="M169 19C171.89 20.2129 174.874 19.9983 178 20C175.11 18.787 172.126 19.0017 169 19z"/>
<path style="fill:#e3b588; stroke:none;" d="M178 19C180.89 20.2129 183.874 19.9983 187 20C184.11 18.787 181.126 19.0017 178 19z"/>
<path style="fill:#d4944d; stroke:none;" d="M187 19C189.89 20.2129 192.874 19.9983 196 20C193.11 18.787 190.126 19.0017 187 19z"/>
<path style="fill:#dfac79; stroke:none;" d="M303 19C304.248 19.6848 304.548 19.7488 306 20C304.752 19.3152 304.452 19.2512 303 19z"/>
<path style="fill:#f1d5c3; stroke:none;" d="M126 20C129.432 21.4403 133.3 21 137 21C133.568 19.5597 129.7 20 126 20z"/>
<path style="fill:#e3b588; stroke:none;" d="M137 20C140.432 21.4403 144.3 21 148 21C144.568 19.5597 140.7 20 137 20z"/>
<path style="fill:#d4944d; stroke:none;" d="M148 20C151.432 21.4403 155.3 21 159 21C155.568 19.5597 151.7 20 148 20z"/>
<path style="fill:#dba46b; stroke:none;" d="M309 20C310.248 20.6848 310.548 20.7488 312 21C310.752 20.3152 310.452 20.2512 309 20z"/>
<path style="fill:#f1d5c3; stroke:none;" d="M312.667 20.3333C312.222 20.7777 313.278 20.7222 313.333 20.6667C313.778 20.2222 312.722 20.2778 312.667 20.3333M72 21C76.4714 22.8763 82.1834 22 87 22C82.5286 20.1237 76.8166 21 72 21z"/>
<path style="fill:#e3b588; stroke:none;" d="M87 21C91.2165 22.7693 96.4589 22 101 22C96.7835 20.2307 91.5411 21 87 21z"/>
<path style="fill:#d4944d; stroke:none;" d="M101 21C104.959 22.6611 109.737 22 114 22C110.041 20.3389 105.263 21 101 21M316.667 21.3333C316.222 21.7777 317.278 21.7223 317.333 21.6667C317.778 21.2222 316.722 21.2778 316.667 21.3333z"/>
<path style="fill:#e3b588; stroke:none;" d="M318.667 21.3333C318.222 21.7777 319.278 21.7222 319.333 21.6667C319.778 21.2222 318.722 21.2778 318.667 21.3333z"/>
<path style="fill:#f1d5c3; stroke:none;" d="M320.667 21.3333C320.222 21.7777 321.278 21.7222 321.333 21.6667C321.778 21.2222 320.722 21.2778 320.667 21.3333M2 23C7.57244 25.3383 16.2045 24.3798 22 23C16.6153 20.7405 7.53597 21.3636 2 23z"/>
<path style="fill:#e3b588; stroke:none;" d="M20 23C25.5724 25.3383 34.2045 24.3798 40 23C34.4276 20.6617 25.7955 21.6202 20 23z"/>
<path style="fill:#d4944d; stroke:none;" d="M38 23C43.5256 25.3186 51.2272 24.0717 57 23C51.6275 20.7456 43.5834 21.6707 38 23M325 22C325.98 23.7833 325.908 23.5943 328 24C326.777 22.8048 326.58 22.6836 325 22z"/>
<path style="fill:#e3b588; stroke:none;" d="M327 22C328.543 23.2667 329.048 23.4892 331 24C329.457 22.7333 328.952 22.5108 327 22z"/>
<path style="fill:#f1d5c3; stroke:none;" d="M330 22C331.543 23.2667 332.048 23.4893 334 24C332.686 22.3821 332.123 22.3067 330 22M70 24C74.4714 25.8763 80.1834 25 85 25C80.5286 23.1237 74.8166 24 70 24z"/>
<path style="fill:#e3b588; stroke:none;" d="M85 24C88.9587 25.6611 93.7366 25 98 25C94.0413 23.3389 89.2634 24 85 24z"/>
<path style="fill:#d4944d; stroke:none;" d="M98 24C102.217 25.7693 107.459 25 112 25C107.783 23.2307 102.541 24 98 24M316.667 24.3333C316.222 24.7777 317.278 24.7223 317.333 24.6667C317.778 24.2222 316.722 24.2778 316.667 24.3333z"/>
<path style="fill:#e3b588; stroke:none;" d="M318.667 24.3333C318.222 24.7777 319.278 24.7222 319.333 24.6667C319.778 24.2222 318.722 24.2778 318.667 24.3333z"/>
<path style="fill:#f1d5c3; stroke:none;" d="M320 24C321.248 24.6848 321.548 24.7488 323 25C321.752 24.3152 321.452 24.2512 320 24M124 25C127.697 26.5515 132.017 26 136 26C132.303 24.4485 127.983 25 124 25z"/>
<path style="fill:#e3b588; stroke:none;" d="M136 25C139.432 26.4403 143.3 26 147 26C143.568 24.5597 139.7 25 136 25z"/>
<path style="fill:#d4944d; stroke:none;" d="M147 25C150.163 26.3274 153.586 25.9996 157 26C153.837 24.6726 150.414 25.0004 147 25z"/>
<path style="fill:#d89c5c; stroke:none;" d="M309.667 25.3333C309.222 25.7778 310.278 25.7222 310.333 25.6667C310.778 25.2222 309.722 25.2778 309.667 25.3333z"/>
<path style="fill:#eac5a6; stroke:none;" d="M311 25C312.248 25.6848 312.548 25.7488 314 26C312.752 25.3152 312.452 25.2512 311 25z"/>
<path style="fill:#f1d5c3; stroke:none;" d="M167 26C170.163 27.3274 173.586 26.9996 177 27C173.837 25.6726 170.414 26.0004 167 26z"/>
<path style="fill:#e3b588; stroke:none;" d="M177 26C179.89 27.2129 182.874 26.9983 186 27C183.11 25.787 180.126 26.0017 177 26z"/>
<path style="fill:#d4944d; stroke:none;" d="M186 26C188.613 27.0977 191.165 26.9928 194 27C191.387 25.9023 188.835 26.0072 186 26z"/>
<path style="fill:#e3b588; stroke:none;" d="M304.667 26.3333C304.222 26.7777 305.278 26.7223 305.333 26.6667C305.778 26.2222 304.722 26.2778 304.667 26.3333z"/>
<path style="fill:#f1d5c3; stroke:none;" d="M202 27C204.613 28.0977 207.164 27.9928 210 28C207.387 26.9023 204.835 27.0072 202 27z"/>
<path style="fill:#e3b588; stroke:none;" d="M210 27C212.332 27.9845 214.457 27.9813 217 28C214.668 27.0155 212.543 27.0187 210 27z"/>
<path style="fill:#d4944d; stroke:none;" d="M217 27C219.332 27.9845 221.457 27.9813 224 28C221.668 27.0155 219.543 27.0187 217 27z"/>
<path style="fill:#e6bd97; stroke:none;" d="M299 27C300.248 27.6848 300.548 27.7488 302 28C300.752 27.3152 300.452 27.2512 299 27z"/>
<path style="fill:#f1d5c3; stroke:none;" d="M231 28C233.052 28.8743 234.747 28.9528 237 29C234.948 28.1257 233.253 28.0472 231 28z"/>
<path style="fill:#e3b588; stroke:none;" d="M237 28C239.052 28.8743 240.747 28.9528 243 29C240.948 28.1258 239.253 28.0472 237 28z"/>
<path style="fill:#d4944d; stroke:none;" d="M243 28C244.769 28.779 246.036 28.9124 248 29C246.231 28.2211 244.964 28.0876 243 28z"/>
<path style="fill:#eac5a6; stroke:none;" d="M295.667 28.3333C295.222 28.7777 296.278 28.7222 296.333 28.6667C296.778 28.2222 295.722 28.2778 295.667 28.3333z"/>
<path style="fill:#f1d5c3; stroke:none;" d="M253 29C254.769 29.7789 256.036 29.9124 258 30C256.231 29.2211 254.964 29.0876 253 29z"/>
<path style="fill:#e3b588; stroke:none;" d="M258 29C259.769 29.7789 261.036 29.9124 263 30C261.231 29.2211 259.964 29.0876 258 29z"/>
<path style="fill:#d4944d; stroke:none;" d="M263 29C264.506 29.683 265.315 29.8259 267 30C265.494 29.317 264.685 29.1741 263 29z"/>
<path style="fill:#dfac79; stroke:none;" d="M292 29L293 30L292 29z"/>
<path style="fill:#f1d5c3; stroke:none;" d="M271 30C272.506 30.683 273.315 30.8259 275 31C273.494 30.317 272.685 30.1741 271 30z"/>
<path style="fill:#e3b588; stroke:none;" d="M275 30C276.506 30.6831 277.315 30.8259 279 31C277.494 30.317 276.685 30.1741 275 30z"/>
<path style="fill:#d4944d; stroke:none;" d="M279 30C280.248 30.6848 280.548 30.7488 282 31C280.752 30.3152 280.452 30.2512 279 30z"/>
<path style="fill:#eac5a6; stroke:none;" d="M290 30L291 31L290 30z"/>
<path style="fill:#f1d5c3; stroke:none;" d="M285 31C286.506 31.6831 287.315 31.8259 289 32C287.494 31.317 286.685 31.1741 285 31z"/>
</svg>
