<?xml version="1.0" standalone="yes"?>
<svg xmlns="http://www.w3.org/2000/svg" width="341" height="48">
<path style="fill:#fff5fe; stroke:none;" d="M0 0L0 48L341 48L341 0L0 0z"/>
<path style="fill:#e9d2e5; stroke:none;" d="M50 19C51.2484 19.6848 51.5484 19.7488 53 20C51.7517 19.3152 51.4516 19.2512 50 19z"/>
<path style="fill:#d2aecc; stroke:none;" d="M48 20L49 21L48 20z"/>
<path style="fill:#a56799; stroke:none;" d="M13 27L13 29C21.2859 29.0229 29.9258 30.4625 38 32.3356C42.8997 33.4723 47.9115 35.9324 53 35.8673C74.9298 35.5867 97.0694 32.9997 119 32.0394C173.892 29.6357 229.01 29 284 29C278.371 25.1543 268.608 27 262 27C243.951 27 226.004 26 208 26C170.361 26 132.583 24.6064 95 22.9606C81.0401 22.3494 66.9623 20.306 53 20.1327C48.4966 20.0768 44.3306 22.3597 40 23.3349C31.2242 25.311 21.9932 26.994 13 27z"/>
<path style="fill:#bc8bb2; stroke:none;" d="M56 20C57.2483 20.6848 57.5484 20.7488 59 21C57.7517 20.3152 57.4516 20.2512 56 20z"/>
<path style="fill:#d2aecc; stroke:none;" d="M59 20C60.506 20.683 61.3148 20.8259 63 21C61.494 20.317 60.6852 20.1741 59 20z"/>
<path style="fill:#e9d2e5; stroke:none;" d="M63 20C64.5061 20.683 65.3148 20.8259 67 21C65.494 20.317 64.6852 20.1741 63 20z"/>
<path style="fill:#c193b9; stroke:none;" d="M45.6667 21.3333C45.2222 21.7778 46.2778 21.7222 46.3333 21.6667C46.7778 21.2222 45.7222 21.2778 45.6667 21.3333z"/>
<path style="fill:#bc8bb2; stroke:none;" d="M71 21C72.5061 21.683 73.3148 21.8259 75 22C73.494 21.317 72.6852 21.1741 71 21z"/>
<path style="fill:#d2aecc; stroke:none;" d="M75 21C76.769 21.7789 78.0359 21.9124 80 22C78.231 21.2211 76.9641 21.0876 75 21z"/>
<path style="fill:#e9d2e5; stroke:none;" d="M80 21C81.769 21.7789 83.0359 21.9124 85 22C83.231 21.2211 81.9641 21.0876 80 21z"/>
<path style="fill:#c193b9; stroke:none;" d="M42.6667 22.3333C42.2222 22.7778 43.2778 22.7222 43.3333 22.6667C43.7778 22.2222 42.7222 22.2778 42.6667 22.3333z"/>
<path style="fill:#bc8bb2; stroke:none;" d="M90 22C91.769 22.7789 93.0359 22.9124 95 23C93.2309 22.2211 91.9641 22.0876 90 22z"/>
<path style="fill:#d2aecc; stroke:none;" d="M95 22C97.0521 22.8742 98.7472 22.9528 101 23C98.9479 22.1258 97.2528 22.0472 95 22z"/>
<path style="fill:#e9d2e5; stroke:none;" d="M101 22C103.052 22.8742 104.747 22.9528 107 23C104.948 22.1257 103.253 22.0472 101 22z"/>
<path style="fill:#c193b9; stroke:none;" d="M38.6667 23.3333C38.2222 23.7778 39.2778 23.7222 39.3333 23.6667C39.7778 23.2222 38.7222 23.2778 38.6667 23.3333z"/>
<path style="fill:#bc8bb2; stroke:none;" d="M113 23C115.613 24.0977 118.165 23.9928 121 24C118.387 22.9023 115.835 23.0072 113 23z"/>
<path style="fill:#d2aecc; stroke:none;" d="M121 23C123.332 23.9845 125.457 23.9813 128 24C125.668 23.0155 123.543 23.0187 121 23z"/>
<path style="fill:#e9d2e5; stroke:none;" d="M128 23C130.332 23.9845 132.457 23.9813 135 24C132.668 23.0155 130.543 23.0187 128 23z"/>
<path style="fill:#e3c9de; stroke:none;" d="M31 24C32.2483 24.6848 32.5484 24.7488 34 25C32.7516 24.3152 32.4516 24.2512 31 24z"/>
<path style="fill:#bc8bb2; stroke:none;" d="M143 24C145.89 25.2129 148.874 24.9983 152 25C149.11 23.787 146.126 24.0017 143 24z"/>
<path style="fill:#d2aecc; stroke:none;" d="M152 24C154.89 25.2129 157.874 24.9983 161 25C158.11 23.787 155.126 24.0017 152 24z"/>
<path style="fill:#e9d2e5; stroke:none;" d="M161 24C163.89 25.2129 166.874 24.9983 170 25C167.11 23.787 164.126 24.0017 161 24M24.6667 25.3333C24.2222 25.7778 25.2778 25.7222 25.3333 25.6667C25.7778 25.2222 24.7222 25.2778 24.6667 25.3333z"/>
<path style="fill:#d2aecc; stroke:none;" d="M26.6667 25.3333C26.2222 25.7778 27.2778 25.7222 27.3333 25.6667C27.7778 25.2222 26.7222 25.2778 26.6667 25.3333z"/>
<path style="fill:#bc8bb2; stroke:none;" d="M180 25C183.163 26.3274 186.586 25.9996 190 26C186.837 24.6726 183.414 25.0004 180 25z"/>
<path style="fill:#d2aecc; stroke:none;" d="M190 25C193.432 26.4403 197.3 26 201 26C197.568 24.5597 193.7 25 190 25z"/>
<path style="fill:#e9d2e5; stroke:none;" d="M201 25C204.697 26.5515 209.017 26 213 26C209.303 24.4485 204.983 25 201 25M16.6667 26.3333C16.2222 26.7778 17.2778 26.7222 17.3333 26.6667C17.7778 26.2222 16.7222 26.2778 16.6667 26.3333z"/>
<path style="fill:#d2aecc; stroke:none;" d="M18.6667 26.3333C18.2222 26.7778 19.2778 26.7222 19.3333 26.6667C19.7778 26.2222 18.7222 26.2778 18.6667 26.3333z"/>
<path style="fill:#bc8bb2; stroke:none;" d="M20 26C21.2484 26.6848 21.5484 26.7488 23 27C21.7516 26.3152 21.4516 26.2512 20 26M225 26C228.959 27.6611 233.737 27 238 27C234.041 25.3389 229.263 26 225 26z"/>
<path style="fill:#d2aecc; stroke:none;" d="M238 26C242.217 27.7693 247.459 27 252 27C247.783 25.2307 242.541 26 238 26z"/>
<path style="fill:#e9d2e5; stroke:none;" d="M252 26C256.471 27.8763 262.183 27 267 27C262.529 25.1237 256.817 26 252 26M5 27L5 29L8 29L8 27L5 27z"/>
<path style="fill:#d2aecc; stroke:none;" d="M8 29C9.58 28.3164 9.77723 28.1952 11 27C8.90759 27.4057 8.98024 27.2167 8 29z"/>
<path style="fill:#bc8bb2; stroke:none;" d="M10 29C12.0924 28.5943 12.0198 28.7833 13 27C11.42 27.6836 11.2228 27.8048 10 29M282 27C287.077 30.4687 295.048 29 301 29C295.923 25.5314 287.952 27 282 27z"/>
<path style="fill:#d2aecc; stroke:none;" d="M299 27C304.267 30.598 312.821 29 319 29C313.377 25.6319 305.357 27 299 27z"/>
<path style="fill:#e9d2e5; stroke:none;" d="M316 27C321.836 30.4958 330.398 29 337 29C331.547 25.2749 322.403 27 316 27M16.6667 29.3333C16.2222 29.7778 17.2778 29.7222 17.3333 29.6667C17.7778 29.2222 16.7222 29.2778 16.6667 29.3333z"/>
<path style="fill:#d2aecc; stroke:none;" d="M18.6667 29.3333C18.2222 29.7778 19.2778 29.7222 19.3333 29.6667C19.7778 29.2222 18.7222 29.2778 18.6667 29.3333z"/>
<path style="fill:#bc8bb2; stroke:none;" d="M20.6667 29.3333C20.2222 29.7778 21.2778 29.7222 21.3333 29.6667C21.7778 29.2222 20.7222 29.2778 20.6667 29.3333M227 29C230.959 30.6611 235.737 30 240 30C236.041 28.3389 231.263 29 227 29z"/>
<path style="fill:#d2aecc; stroke:none;" d="M240 29C244.217 30.7693 249.459 30 254 30C249.783 28.2307 244.541 29 240 29z"/>
<path style="fill:#e9d2e5; stroke:none;" d="M254 29C258.471 30.8763 264.183 30 269 30C264.529 28.1237 258.817 29 254 29M24.6667 30.3333C24.2222 30.7778 25.2778 30.7222 25.3333 30.6667C25.7778 30.2222 24.7222 30.2778 24.6667 30.3333z"/>
<path style="fill:#cca5c5; stroke:none;" d="M26.6667 30.3333C26.2222 30.7778 27.2778 30.7222 27.3333 30.6667C27.7778 30.2222 26.7222 30.2778 26.6667 30.3333z"/>
<path style="fill:#bc8bb2; stroke:none;" d="M181 30C184.432 31.4403 188.3 31 192 31C188.568 29.5597 184.7 30 181 30z"/>
<path style="fill:#d2aecc; stroke:none;" d="M192 30C195.432 31.4403 199.3 31 203 31C199.568 29.5597 195.7 30 192 30z"/>
<path style="fill:#e9d2e5; stroke:none;" d="M203 30C206.697 31.5515 211.017 31 215 31C211.303 29.4485 206.983 30 203 30z"/>
<path style="fill:#ddc0d8; stroke:none;" d="M31 31C32.2483 31.6848 32.5484 31.7488 34 32C32.7516 31.3152 32.4516 31.2512 31 31z"/>
<path style="fill:#bc8bb2; stroke:none;" d="M144 31C146.89 32.2129 149.874 31.9983 153 32C150.11 30.787 147.126 31.0017 144 31z"/>
<path style="fill:#d2aecc; stroke:none;" d="M153 31C155.89 32.2129 158.874 31.9983 162 32C159.11 30.787 156.126 31.0017 153 31z"/>
<path style="fill:#e9d2e5; stroke:none;" d="M162 31C165.163 32.3274 168.586 31.9996 172 32C168.837 30.6726 165.414 31.0004 162 31z"/>
<path style="fill:#d2aecc; stroke:none;" d="M37 32C38.2484 32.6848 38.5484 32.7488 40 33C38.7517 32.3152 38.4516 32.2512 37 32z"/>
<path style="fill:#bc8bb2; stroke:none;" d="M114 32C116.613 33.0977 119.165 32.9928 122 33C119.387 31.9023 116.835 32.0072 114 32z"/>
<path style="fill:#d2aecc; stroke:none;" d="M122 32C124.332 32.9845 126.457 32.9813 129 33C126.668 32.0155 124.543 32.0187 122 32z"/>
<path style="fill:#e9d2e5; stroke:none;" d="M129 32C131.613 33.0977 134.165 32.9928 137 33C134.387 31.9023 131.835 32.0072 129 32z"/>
<path style="fill:#bc8bb2; stroke:none;" d="M90 33C92.0521 33.8742 93.7472 33.9528 96 34C93.9479 33.1257 92.2528 33.0472 90 33z"/>
<path style="fill:#d2aecc; stroke:none;" d="M96 33C98.0521 33.8742 99.7472 33.9528 102 34C99.9479 33.1257 98.2528 33.0472 96 33z"/>
<path style="fill:#e9d2e5; stroke:none;" d="M102 33C104.052 33.8742 105.747 33.9528 108 34C105.948 33.1257 104.253 33.0472 102 33z"/>
<path style="fill:#c193b9; stroke:none;" d="M45.6667 34.3333C45.2222 34.7778 46.2778 34.7222 46.3333 34.6667C46.7778 34.2222 45.7222 34.2778 45.6667 34.3333z"/>
<path style="fill:#bc8bb2; stroke:none;" d="M71 34C72.769 34.7789 74.0359 34.9124 76 35C74.231 34.2211 72.9641 34.0876 71 34z"/>
<path style="fill:#d2aecc; stroke:none;" d="M76 34C77.769 34.7789 79.0359 34.9124 81 35C79.231 34.2211 77.9641 34.0876 76 34z"/>
<path style="fill:#e9d2e5; stroke:none;" d="M81 34C82.5061 34.683 83.3148 34.8259 85 35C83.494 34.317 82.6852 34.1741 81 34z"/>
<path style="fill:#d2aecc; stroke:none;" d="M48 35L49 36L48 35z"/>
<path style="fill:#bc8bb2; stroke:none;" d="M56 35C57.506 35.683 58.3148 35.8259 60 36C58.494 35.317 57.6852 35.1741 56 35z"/>
<path style="fill:#d2aecc; stroke:none;" d="M60 35C61.506 35.683 62.3148 35.8259 64 36C62.494 35.317 61.6852 35.1741 60 35z"/>
<path style="fill:#e9d2e5; stroke:none;" d="M64 35C65.2484 35.6848 65.5484 35.7488 67 36C65.7517 35.3152 65.4516 35.2512 64 35M50 36C51.5061 36.683 52.3148 36.8259 54 37C52.494 36.317 51.6852 36.1741 50 36z"/>
</svg>
