<?xml version="1.0" standalone="yes"?>
<svg xmlns="http://www.w3.org/2000/svg" width="291" height="48">
<path style="fill:#fcdfdb; stroke:none;" d="M0 0L0 48L291 48L291 0L0 0z"/>
<path style="fill:#9d797a; stroke:none;" d="M7 19C8.50604 19.683 9.31479 19.8259 11 20C9.49395 19.317 8.68522 19.1741 7 19z"/>
<path style="fill:#6d464a; stroke:none;" d="M11 19C14.6975 20.5515 19.0168 20 23 20C19.3025 18.4485 14.9832 19 11 19z"/>
<path style="fill:#9d797a; stroke:none;" d="M23 19C27.7238 20.9822 33.9098 20 39 20C34.2762 18.0178 28.0902 19 23 19z"/>
<path style="fill:#ccacab; stroke:none;" d="M39 19C42.4324 20.4403 46.2998 20 50 20C46.5676 18.5597 42.7002 19 39 19z"/>
<path style="fill:#3d1319; stroke:none;" d="M2 28C9.70342 27.9948 17.2537 26.8672 25 27.0046C31.7044 27.1236 38.2287 28.2349 45 27.9815C59.7094 27.431 74.2073 25.8973 89 26C133.219 26.3071 177.777 28 222 28C239.22 28 256.819 29.06 274 27.9398C278.809 27.6262 288.439 28.3348 290 23C280.298 21.7739 270.744 22.3873 261 21.9606C243.469 21.193 225.551 19.5847 208 20.0147C197.682 20.2674 187.318 21.7326 177 21.9853C140.963 22.8682 104.995 21.0139 69 21C52.3859 20.9936 35.6857 20 19 20C11.6011 20 3.06428 18.6483 2 28z"/>
<path style="fill:#6d464a; stroke:none;" d="M59 20C61.0521 20.8742 62.7472 20.9528 65 21C62.9479 20.1258 61.2528 20.0472 59 20z"/>
<path style="fill:#9d797a; stroke:none;" d="M65 20C66.769 20.7789 68.0359 20.9124 70 21C68.231 20.2211 66.9641 20.0876 65 20z"/>
<path style="fill:#ccacab; stroke:none;" d="M70 20C72.0521 20.8742 73.7472 20.9528 76 21C73.9479 20.1258 72.2528 20.0472 70 20M187 20C188.248 20.6848 188.548 20.7488 190 21C188.752 20.3152 188.452 20.2512 187 20z"/>
<path style="fill:#9d797a; stroke:none;" d="M190 20C191.769 20.7789 193.036 20.9124 195 21C193.231 20.2211 191.964 20.0876 190 20z"/>
<path style="fill:#6d464a; stroke:none;" d="M195 20C197.613 21.0977 200.165 20.9928 203 21C200.387 19.9023 197.835 20.0072 195 20M221 20C224.432 21.4403 228.3 21 232 21C228.568 19.5597 224.7 20 221 20z"/>
<path style="fill:#9d797a; stroke:none;" d="M232 20C234.89 21.2129 237.874 20.9983 241 21C238.11 19.787 235.126 20.0017 232 20z"/>
<path style="fill:#ccacab; stroke:none;" d="M241 20C243.332 20.9845 245.457 20.9813 248 21C245.668 20.0155 243.543 20.0187 241 20z"/>
<path style="fill:#b49392; stroke:none;" d="M4 21L5 22L4 21z"/>
<path style="fill:#6d464a; stroke:none;" d="M87 21C88.5061 21.683 89.3148 21.8259 91 22C89.494 21.317 88.6852 21.1741 87 21M119 21C122.699 22.552 127.017 22 131 22L153 22C149.301 20.448 144.983 21 141 21L119 21z"/>
<path style="fill:#9d797a; stroke:none;" d="M153 21C159.687 23.8058 169.767 22 177 22C170.313 19.1942 160.233 21 153 21z"/>
<path style="fill:#6d464a; stroke:none;" d="M177 21C179.052 21.8743 180.747 21.9528 183 22C180.948 21.1257 179.253 21.0472 177 21M256 21C258.613 22.0977 261.165 21.9928 264 22C261.387 20.9023 258.836 21.0072 256 21z"/>
<path style="fill:#9d797a; stroke:none;" d="M264 21C266.613 22.0977 269.165 21.9928 272 22C269.387 20.9023 266.836 21.0072 264 21z"/>
<path style="fill:#ccacab; stroke:none;" d="M272 21C274.332 21.9845 276.457 21.9813 279 22C276.668 21.0155 274.543 21.0187 272 21z"/>
<path style="fill:#b49392; stroke:none;" d="M2 22L3 23L2 22z"/>
<path style="fill:#6d464a; stroke:none;" d="M286 22C287.248 22.6848 287.548 22.7488 289 23C287.752 22.3152 287.452 22.2512 286 22z"/>
<path style="fill:#ccacab; stroke:none;" d="M289 22L290 23L289 22z"/>
<path style="fill:#6d464a; stroke:none;" d="M2 23L3 24L2 23M66 26C67.769 26.7789 69.0359 26.9124 71 27C69.231 26.2211 67.964 26.0876 66 26z"/>
<path style="fill:#9d797a; stroke:none;" d="M71 26C72.769 26.7789 74.0359 26.9124 76 27C74.231 26.2211 72.9641 26.0876 71 26z"/>
<path style="fill:#ccacab; stroke:none;" d="M76 26C78.0521 26.8742 79.7472 26.9528 82 27C79.9479 26.1258 78.2528 26.0472 76 26z"/>
<path style="fill:#9d797a; stroke:none;" d="M82 26C84.3315 26.9845 86.4567 26.9813 89 27C86.6684 26.0155 84.5434 26.0187 82 26z"/>
<path style="fill:#6d464a; stroke:none;" d="M89 26C91.3315 26.9845 93.4567 26.9813 96 27C93.6684 26.0155 91.5433 26.0187 89 26M287.667 26.3333C287.222 26.7777 288.278 26.7222 288.333 26.6667C288.778 26.2222 287.722 26.2778 287.667 26.3333z"/>
<path style="fill:#9d797a; stroke:none;" d="M289 26L290 27L289 26z"/>
<path style="fill:#6d464a; stroke:none;" d="M10 27C15.959 29.5005 24.5639 28 31 28C25.041 25.4995 16.4361 27 10 27M49 27C50.2484 27.6848 50.5484 27.7488 52 28C50.7516 27.3152 50.4516 27.2512 49 27z"/>
<path style="fill:#9d797a; stroke:none;" d="M52 27C53.769 27.7789 55.0359 27.9124 57 28C55.231 27.2211 53.9641 27.0876 52 27z"/>
<path style="fill:#ccacab; stroke:none;" d="M57 27C58.5061 27.683 59.3148 27.8259 61 28C59.494 27.317 58.6852 27.1741 57 27M101 27C105.969 29.0851 112.65 28 118 28L154 28C149.031 25.9149 142.35 27 137 27L101 27M170 27C174.724 28.9822 180.91 28 186 28C181.276 26.0178 175.09 27 170 27z"/>
<path style="fill:#9d797a; stroke:none;" d="M186 27C189.697 28.5515 194.017 28 198 28C194.303 26.4485 189.983 27 186 27z"/>
<path style="fill:#6d464a; stroke:none;" d="M198 27C201.163 28.3274 204.586 27.9996 208 28C204.837 26.6726 201.414 27.0004 198 27M277.667 27.3333C277.222 27.7777 278.278 27.7222 278.333 27.6667C278.778 27.2222 277.722 27.2778 277.667 27.3333z"/>
<path style="fill:#9d797a; stroke:none;" d="M279.667 27.3333C279.222 27.7778 280.278 27.7222 280.333 27.6667C280.778 27.2222 279.722 27.2778 279.667 27.3333z"/>
<path style="fill:#ccacab; stroke:none;" d="M281.667 27.3333C281.222 27.7777 282.278 27.7223 282.333 27.6667C282.778 27.2222 281.722 27.2778 281.667 27.3333M3 28C4.76904 28.7789 6.03594 28.9124 8 29C6.23096 28.2211 4.96406 28.0876 3 28M217 28C219.89 29.2129 222.874 28.9983 226 29C223.11 27.787 220.126 28.0017 217 28z"/>
<path style="fill:#9d797a; stroke:none;" d="M226 28C229.697 29.5515 234.017 29 238 29C234.303 27.4485 229.983 28 226 28z"/>
<path style="fill:#6d464a; stroke:none;" d="M238 28C242.724 29.9822 248.91 29 254 29C249.276 27.0178 243.09 28 238 28z"/>
<path style="fill:#9d797a; stroke:none;" d="M254 28C256.052 28.8743 257.747 28.9528 260 29C257.948 28.1258 256.253 28.0472 254 28z"/>
<path style="fill:#ccacab; stroke:none;" d="M260 28C261.506 28.683 262.315 28.8259 264 29C262.494 28.317 261.685 28.1741 260 28z"/>
</svg>
