<?xml version="1.0" standalone="yes"?>
<svg xmlns="http://www.w3.org/2000/svg" width="348" height="48">
<path style="fill:#edefef; stroke:none;" d="M0 0L0 48L348 48L348 0L0 0z"/>
<path style="fill:#6ebdf5; stroke:none;" d="M345.667 15.3333C345.222 15.7778 346.278 15.7222 346.333 15.6667C346.778 15.2222 345.722 15.2778 345.667 15.3333z"/>
<path style="fill:#229df9; stroke:none;" d="M7 22L5 28L262 28C282.072 28 303.023 29.7326 323 27.8302C332.63 26.9132 341.168 25.2873 346 16C340.153 17.0067 334.949 20.1776 329 20.8264C312.438 22.6326 295.653 22 279 22L205 22L7 22z"/>
<path style="fill:#9ecaf3; stroke:none;" d="M340 17L341 18L340 17z"/>
<path style="fill:#aad1f3; stroke:none;" d="M345 17L346 18L345 17z"/>
<path style="fill:#64b2f6; stroke:none;" d="M334.667 19.3333C334.222 19.7777 335.278 19.7223 335.333 19.6667C335.778 19.2222 334.722 19.2778 334.667 19.3333z"/>
<path style="fill:#bcd9f2; stroke:none;" d="M327.667 20.3333C327.222 20.7777 328.278 20.7223 328.333 20.6667C328.778 20.2222 327.722 20.2778 327.667 20.3333z"/>
<path style="fill:#7bc0f5; stroke:none;" d="M329 20C330.248 20.6848 330.548 20.7488 332 21C330.752 20.3152 330.452 20.2512 329 20z"/>
<path style="fill:#56b3f7; stroke:none;" d="M8 21C15.6394 24.2056 27.7293 22 36 22L100 22L320 22C312.361 18.7944 300.271 21 292 21L228 21L8 21z"/>
<path style="fill:#7bc0f5; stroke:none;" d="M6 24L7 25L6 24z"/>
<path style="fill:#89c7f5; stroke:none;" d="M338 24L339 25L338 24M336 25L337 26L336 25z"/>
<path style="fill:#7bc0f5; stroke:none;" d="M333 26L334 27L333 26z"/>
<path style="fill:#89c7f5; stroke:none;" d="M4 27C7.6059 31.1265 18.783 29 24 29L81 29L312 29C305.322 26.1979 295.216 28 288 28L234 28L79 28L31 28C22.1739 28 12.6242 29.0533 4 27z"/>
<path style="fill:#56b3f7; stroke:none;" d="M325 27C326.248 27.6848 326.548 27.7488 328 28C326.752 27.3152 326.452 27.2512 325 27z"/>
<path style="fill:#9ecaf3; stroke:none;" d="M328 27C329.248 27.6848 329.548 27.7488 331 28C329.752 27.3152 329.452 27.2512 328 27z"/>
<path style="fill:#bcd9f2; stroke:none;" d="M312 28C314.89 29.2129 317.874 28.9983 321 29C318.11 27.787 315.126 28.0017 312 28z"/>
</svg>
