<?xml version="1.0" standalone="yes"?>
<svg xmlns="http://www.w3.org/2000/svg" width="347" height="48">
<path style="fill:#edefef; stroke:none;" d="M0 0L0 48L347 48L347 0L0 0z"/>
<path style="fill:#869ae8; stroke:none;" d="M343.667 22.3333C343.222 22.7777 344.278 22.7222 344.333 22.6667C344.778 22.2222 343.722 22.2777 343.667 22.3333z"/>
<path style="fill:#b3bfeb; stroke:none;" d="M341 23L342 24L341 23z"/>
<path style="fill:#415de2; stroke:none;" d="M342 23L343 24L342 23z"/>
<path style="fill:#0228dd; stroke:none;" d="M343 23C331.046 29.3664 319.157 29 306 29L263 29L87 29L26 29C16.4734 29 7.12567 26.5342 2 36L263 36C283.694 36 304.383 36.457 325 34.9113C331.772 34.4036 342.49 31.0999 343 23z"/>
<path style="fill:#b3bfeb; stroke:none;" d="M339 24L340 25L339 24z"/>
<path style="fill:#415de2; stroke:none;" d="M340 24L341 25L340 24z"/>
<path style="fill:#657be4; stroke:none;" d="M343 24L344 25L343 24z"/>
<path style="fill:#869ae8; stroke:none;" d="M337 25L338 26L337 25z"/>
<path style="fill:#94aaeb; stroke:none;" d="M334 26L335 27L334 26z"/>
<path style="fill:#546ce2; stroke:none;" d="M335 26L336 27L335 26z"/>
<path style="fill:#a2afe9; stroke:none;" d="M330 27L331 28L330 27z"/>
<path style="fill:#2f52e1; stroke:none;" d="M331.667 27.3333C331.222 27.7777 332.278 27.7222 332.333 27.6667C332.778 27.2222 331.722 27.2778 331.667 27.3333z"/>
<path style="fill:#869ae8; stroke:none;" d="M341 27L342 28L341 27z"/>
<path style="fill:#b3bfeb; stroke:none;" d="M6 28C13.879 31.3062 26.4661 29 35 29L99 29L323 29C315.121 25.6938 302.534 28 294 28L230 28L6 28z"/>
<path style="fill:#758de7; stroke:none;" d="M323 28C324.248 28.6848 324.548 28.7488 326 29C324.752 28.3152 324.452 28.2512 323 28z"/>
<path style="fill:#3859e2; stroke:none;" d="M326.667 28.3333C326.222 28.7777 327.278 28.7222 327.333 28.6667C327.778 28.2222 326.722 28.2778 326.667 28.3333z"/>
<path style="fill:#567ae7; stroke:none;" d="M340 28L341 29L340 28z"/>
<path style="fill:#758de7; stroke:none;" d="M5 29L6 30L5 29z"/>
<path style="fill:#546ce2; stroke:none;" d="M339 29L340 30L339 29z"/>
<path style="fill:#657be4; stroke:none;" d="M338 30L339 31L338 30z"/>
<path style="fill:#758de7; stroke:none;" d="M4 31L5 32L4 31z"/>
<path style="fill:#a2afe9; stroke:none;" d="M337 31L338 32L337 31z"/>
<path style="fill:#657be4; stroke:none;" d="M335 32L336 33L335 32M3 33L4 34L3 33z"/>
<path style="fill:#869ae8; stroke:none;" d="M333 33L334 34L333 33z"/>
<path style="fill:#b3bfeb; stroke:none;" d="M2 34L3 35L2 34z"/>
<path style="fill:#546ce2; stroke:none;" d="M328.667 34.3333C328.222 34.7778 329.278 34.7222 329.333 34.6667C329.778 34.2223 328.722 34.2777 328.667 34.3333z"/>
<path style="fill:#cbd5ee; stroke:none;" d="M330.667 34.3333C330.222 34.7778 331.278 34.7222 331.333 34.6667C331.778 34.2222 330.722 34.2778 330.667 34.3333z"/>
<path style="fill:#3859e2; stroke:none;" d="M317 35C318.769 35.7789 320.036 35.9124 322 36C320.231 35.2211 318.964 35.0876 317 35z"/>
<path style="fill:#758de7; stroke:none;" d="M322 35C323.248 35.6848 323.548 35.7488 325 36C323.752 35.3152 323.451 35.2512 322 35z"/>
<path style="fill:#becaed; stroke:none;" d="M325.667 35.3333C325.222 35.7778 326.278 35.7222 326.333 35.6667C326.778 35.2223 325.722 35.2777 325.667 35.3333z"/>
</svg>
