<?xml version="1.0" standalone="yes"?>
<svg xmlns="http://www.w3.org/2000/svg" width="344" height="48">
<path style="fill:#edefef; stroke:none;" d="M0 0L0 48L344 48L344 32L88 32L38 32C23.1694 31.999 9.14064 31.0833 1 17C11.0116 23.8213 23.3158 24 35 24L76 24L258 24L319 24C327.969 24 337.52 21.6576 343 30C346.41 21.8723 344 8.81358 344 0L0 0z"/>
<path style="fill:#7bc0f5; stroke:none;" d="M1 17L1 19L3 19C2.45495 17.3648 2.63516 17.5451 1 17z"/>
<path style="fill:#229df9; stroke:none;" d="M2 19C8.00777 29.3636 18.8122 30.9453 30 30.9992C48.999 31.0909 68.0007 31 87 31L343 31C339.615 22.5456 329.641 25 322 25L260 25L118 25C85.2862 25 51.5273 27.3339 19 23.8264C13.0102 23.1805 7.84246 20.0382 2 19z"/>
<path style="fill:#96c8f3; stroke:none;" d="M7 20L8 21L7 20z"/>
<path style="fill:#6ebdf5; stroke:none;" d="M3 21L4 22L3 21z"/>
<path style="fill:#b1d5f3; stroke:none;" d="M9.66667 21.3333C9.22222 21.7778 10.2778 21.7222 10.3333 21.6667C10.7778 21.2222 9.72223 21.2778 9.66667 21.3333z"/>
<path style="fill:#96c8f3; stroke:none;" d="M12.6667 22.3333C12.2222 22.7778 13.2778 22.7222 13.3333 22.6667C13.7778 22.2222 12.7222 22.2778 12.6667 22.3333z"/>
<path style="fill:#7bc0f5; stroke:none;" d="M16 23C17.2483 23.6848 17.5484 23.7488 19 24C17.7516 23.3152 17.4516 23.2512 16 23z"/>
<path style="fill:#bcd9f2; stroke:none;" d="M19.6667 23.3333C19.2222 23.7778 20.2778 23.7222 20.3333 23.6667C20.7778 23.2222 19.7222 23.2778 19.6667 23.3333z"/>
<path style="fill:#56b3f7; stroke:none;" d="M28 24C35.6394 27.2056 47.7293 25 56 25L120 25L340 25C332.361 21.7944 320.271 24 312 24L248 24L28 24z"/>
<path style="fill:#6ebdf5; stroke:none;" d="M340 25L341 26L340 25z"/>
<path style="fill:#89c7f5; stroke:none;" d="M9 27L10 28L9 27z"/>
<path style="fill:#6ebdf5; stroke:none;" d="M341 27L342 28L341 27z"/>
<path style="fill:#89c7f5; stroke:none;" d="M11 28L12 29L11 28z"/>
<path style="fill:#56b3f7; stroke:none;" d="M14.6667 29.3333C14.2222 29.7778 15.2778 29.7222 15.3333 29.6667C15.7778 29.2222 14.7222 29.2778 14.6667 29.3333z"/>
<path style="fill:#aad1f3; stroke:none;" d="M17.6667 30.3333C17.2222 30.7778 18.2778 30.7222 18.3333 30.6667C18.7778 30.2222 17.7222 30.2778 17.6667 30.3333z"/>
<path style="fill:#56b3f7; stroke:none;" d="M19 30C20.506 30.683 21.3148 30.8259 23 31C21.494 30.317 20.6852 30.1741 19 30z"/>
<path style="fill:#89c7f5; stroke:none;" d="M343 30C333.317 32.8621 321.076 31 311 31L247 31L36 31C40.6095 33.6558 49.6018 32 55 32L101 32L271 32L326 32C330.332 32 334.668 32.0507 339 32C340.998 31.9766 343.953 32.3088 343 30z"/>
<path style="fill:#bcd9f2; stroke:none;" d="M27 31C29.8897 32.2129 32.8741 31.9983 36 32C33.1103 30.7871 30.1259 31.0017 27 31z"/>
</svg>
