<?xml version="1.0" standalone="yes"?>
<svg xmlns="http://www.w3.org/2000/svg" width="338" height="48">
<path style="fill:#fff5fe; stroke:none;" d="M0 0L0 48L338 48L338 26C328.427 26 318.402 26.7566 309 28.6651C302.934 29.8965 296.088 33.2433 290 33.3627C278.08 33.5964 265.876 31.9028 254 31.0895C236.74 29.9076 219.277 29.7959 202 29.0394C179.343 28.0472 156.68 28.541 134 27.9853C91.3478 26.9404 48.7397 26 6 26C14.121 21.6661 26.9329 24 36 24C58.3911 24 80.6363 23 103 23C145.598 23 188.455 21.8236 231 19.9606C244.962 19.3493 259.049 18.8658 273 17.9105C278.633 17.5248 284.325 16.4361 290 16.6875C295.024 16.9101 300.057 19.6904 305 20.7145C315.699 22.931 327.095 24 338 24L338 0L0 0z"/>
<path style="fill:#e9d2e5; stroke:none;" d="M289 16C290.506 16.6831 291.315 16.8259 293 17C291.494 16.317 290.685 16.1741 289 16M276 17C277.506 17.683 278.315 17.8259 280 18C278.494 17.317 277.685 17.1741 276 17z"/>
<path style="fill:#d2aecc; stroke:none;" d="M280 17C281.248 17.6848 281.548 17.7488 283 18C281.752 17.3152 281.452 17.2512 280 17z"/>
<path style="fill:#bc8bb2; stroke:none;" d="M283 17C284.506 17.6831 285.315 17.8259 287 18C285.494 17.317 284.685 17.1741 283 17z"/>
<path style="fill:#a56799; stroke:none;" d="M58 25C65.3995 28.105 76.9926 26 85 26C103.724 26 122.287 27 141 27C176.265 27 211.773 28.4968 247 30.0394C261.227 30.6624 275.776 33.0921 290 32.9174C294.779 32.8587 299.404 30.5203 304 29.375C312.093 27.3585 320.658 26.023 329 26L329 24C320.405 23.9763 311.332 22.6642 303 20.5216C299.012 19.4961 295.156 17.3547 291 17.1435C276.947 16.4297 262.082 19.344 248 19.9606C218.011 21.2738 187.979 21.6479 158 22.9606C137.099 23.8759 115.902 24 95 24C82.8481 24 69.9759 22.7767 58 25z"/>
<path style="fill:#e9d2e5; stroke:none;" d="M258 18C259.769 18.7789 261.036 18.9124 263 19C261.231 18.2211 259.964 18.0876 258 18z"/>
<path style="fill:#d2aecc; stroke:none;" d="M263 18C264.506 18.683 265.315 18.8259 267 19C265.494 18.317 264.685 18.1741 263 18z"/>
<path style="fill:#bc8bb2; stroke:none;" d="M267 18C268.769 18.7789 270.036 18.9124 272 19C270.231 18.2211 268.964 18.0876 267 18z"/>
<path style="fill:#cca5c5; stroke:none;" d="M296 18L297 19L296 18z"/>
<path style="fill:#e9d2e5; stroke:none;" d="M235 19C237.052 19.8743 238.747 19.9528 241 20C238.948 19.1257 237.253 19.0472 235 19z"/>
<path style="fill:#d2aecc; stroke:none;" d="M241 19C243.052 19.8743 244.747 19.9528 247 20C244.948 19.1257 243.253 19.0472 241 19z"/>
<path style="fill:#bc8bb2; stroke:none;" d="M247 19C249.052 19.8742 250.747 19.9528 253 20C250.948 19.1257 249.253 19.0472 247 19z"/>
<path style="fill:#e3c9de; stroke:none;" d="M299.667 19.3333C299.222 19.7777 300.278 19.7222 300.333 19.6667C300.778 19.2222 299.722 19.2778 299.667 19.3333z"/>
<path style="fill:#e9d2e5; stroke:none;" d="M207 20C209.613 21.0977 212.165 20.9928 215 21C212.387 19.9023 209.835 20.0072 207 20z"/>
<path style="fill:#d2aecc; stroke:none;" d="M215 20C217.332 20.9845 219.457 20.9813 222 21C219.668 20.0155 217.543 20.0187 215 20z"/>
<path style="fill:#bc8bb2; stroke:none;" d="M222 20C224.332 20.9845 226.457 20.9813 229 21C226.668 20.0155 224.543 20.0187 222 20z"/>
<path style="fill:#c79cbf; stroke:none;" d="M302.667 20.3333C302.222 20.7777 303.278 20.7223 303.333 20.6667C303.778 20.2222 302.722 20.2778 302.667 20.3333z"/>
<path style="fill:#e9d2e5; stroke:none;" d="M173 21C175.89 22.2129 178.874 21.9983 182 22C179.11 20.787 176.126 21.0017 173 21z"/>
<path style="fill:#d2aecc; stroke:none;" d="M182 21C184.89 22.2129 187.874 21.9983 191 22C188.11 20.787 185.126 21.0017 182 21z"/>
<path style="fill:#bc8bb2; stroke:none;" d="M191 21C193.89 22.2129 196.874 21.9983 200 22C197.11 20.787 194.126 21.0017 191 21z"/>
<path style="fill:#cca5c5; stroke:none;" d="M307 21C308.248 21.6848 308.548 21.7488 310 22C308.752 21.3152 308.452 21.2512 307 21z"/>
<path style="fill:#e9d2e5; stroke:none;" d="M130 22C133.432 23.4403 137.3 23 141 23C137.568 21.5597 133.7 22 130 22z"/>
<path style="fill:#d2aecc; stroke:none;" d="M141 22C144.432 23.4403 148.3 23 152 23C148.568 21.5597 144.7 22 141 22z"/>
<path style="fill:#bc8bb2; stroke:none;" d="M152 22C155.432 23.4403 159.3 23 163 23C159.568 21.5597 155.7 22 152 22z"/>
<path style="fill:#c79cbf; stroke:none;" d="M313 22C314.248 22.6848 314.548 22.7488 316 23C314.752 22.3152 314.452 22.2512 313 22z"/>
<path style="fill:#e9d2e5; stroke:none;" d="M316.667 22.3333C316.222 22.7777 317.278 22.7223 317.333 22.6667C317.778 22.2222 316.722 22.2778 316.667 22.3333M76 23C80.4714 24.8763 86.1834 24 91 24C86.5286 22.1237 80.8166 23 76 23z"/>
<path style="fill:#d2aecc; stroke:none;" d="M91 23C94.9587 24.6611 99.7366 24 104 24C100.041 22.3389 95.2634 23 91 23z"/>
<path style="fill:#bc8bb2; stroke:none;" d="M104 23C108.217 24.7693 113.459 24 118 24C113.783 22.2307 108.541 23 104 23M320.667 23.3333C320.222 23.7777 321.278 23.7222 321.333 23.6667C321.778 23.2222 320.722 23.2778 320.667 23.3333z"/>
<path style="fill:#d2aecc; stroke:none;" d="M322.667 23.3333C322.222 23.7777 323.278 23.7223 323.333 23.6667C323.778 23.2222 322.722 23.2778 322.667 23.3333z"/>
<path style="fill:#e9d2e5; stroke:none;" d="M324 23C325.248 23.6848 325.548 23.7488 327 24C325.752 23.3152 325.452 23.2512 324 23M6 25C11.7405 27.4088 19.9977 26.1143 26 25C20.6153 22.7405 11.536 23.3636 6 25z"/>
<path style="fill:#d2aecc; stroke:none;" d="M23 25C28.9526 27.4978 37.7707 26.1565 44 25C38.0474 22.5022 29.2293 23.8435 23 25z"/>
<path style="fill:#bc8bb2; stroke:none;" d="M41 25C46.7405 27.4088 54.9977 26.1143 61 25C55.2595 22.5912 47.0023 23.8857 41 25M329 24L329 26L332 26L332 24L329 24z"/>
<path style="fill:#d2aecc; stroke:none;" d="M332 24L332 26L335 26L335 24L332 24z"/>
<path style="fill:#e9d2e5; stroke:none;" d="M335 24L335 26L338 26L338 24L335 24M74 26C78.2165 27.7693 83.4588 27 88 27C83.7835 25.2307 78.5411 26 74 26z"/>
<path style="fill:#d2aecc; stroke:none;" d="M88 26C92.2165 27.7693 97.4589 27 102 27C97.7835 25.2307 92.5411 26 88 26z"/>
<path style="fill:#bc8bb2; stroke:none;" d="M102 26C106.217 27.7693 111.459 27 116 27C111.783 25.2307 106.541 26 102 26M320 26C321.248 26.6848 321.548 26.7488 323 27C321.752 26.3152 321.452 26.2512 320 26z"/>
<path style="fill:#e9d2e5; stroke:none;" d="M323 26C324.506 26.6831 325.315 26.8259 327 27C325.494 26.317 324.685 26.1741 323 26M128 27C131.432 28.4403 135.3 28 139 28C135.568 26.5597 131.7 27 128 27z"/>
<path style="fill:#d2aecc; stroke:none;" d="M139 27C142.432 28.4403 146.3 28 150 28C146.568 26.5597 142.7 27 139 27z"/>
<path style="fill:#bc8bb2; stroke:none;" d="M150 27C153.432 28.4403 157.3 28 161 28C157.568 26.5597 153.7 27 150 27z"/>
<path style="fill:#c193b9; stroke:none;" d="M313.667 27.3333C313.222 27.7777 314.278 27.7223 314.333 27.6667C314.778 27.2222 313.722 27.2778 313.667 27.3333z"/>
<path style="fill:#ddc0d8; stroke:none;" d="M315 27C316.248 27.6848 316.548 27.7488 318 28C316.752 27.3152 316.452 27.2512 315 27z"/>
<path style="fill:#e9d2e5; stroke:none;" d="M171 28C173.89 29.2129 176.874 28.9983 180 29C177.11 27.787 174.126 28.0017 171 28z"/>
<path style="fill:#d2aecc; stroke:none;" d="M180 28C182.89 29.2129 185.874 28.9983 189 29C186.11 27.787 183.126 28.0017 180 28z"/>
<path style="fill:#bc8bb2; stroke:none;" d="M189 28C191.89 29.2129 194.874 28.9983 198 29C195.11 27.787 192.126 28.0017 189 28z"/>
<path style="fill:#c79cbf; stroke:none;" d="M307 28C308.248 28.6848 308.548 28.7488 310 29C308.752 28.3152 308.452 28.2512 307 28z"/>
<path style="fill:#e9d2e5; stroke:none;" d="M206 29C208.613 30.0977 211.165 29.9928 214 30C211.387 28.9023 208.835 29.0072 206 29z"/>
<path style="fill:#d2aecc; stroke:none;" d="M214 29C216.332 29.9845 218.457 29.9813 221 30C218.668 29.0155 216.543 29.0187 214 29z"/>
<path style="fill:#bc8bb2; stroke:none;" d="M221 29C223.332 29.9845 225.457 29.9813 228 30C225.668 29.0155 223.543 29.0187 221 29z"/>
<path style="fill:#d8b7d2; stroke:none;" d="M303 29C304.248 29.6848 304.548 29.7488 306 30C304.752 29.3152 304.452 29.2512 303 29z"/>
<path style="fill:#e9d2e5; stroke:none;" d="M234 30C236.332 30.9845 238.457 30.9813 241 31C238.668 30.0155 236.543 30.0187 234 30z"/>
<path style="fill:#d2aecc; stroke:none;" d="M241 30C242.769 30.779 244.036 30.9124 246 31C244.231 30.2211 242.964 30.0876 241 30z"/>
<path style="fill:#bc8bb2; stroke:none;" d="M246 30C248.052 30.8743 249.747 30.9528 252 31C249.948 30.1258 248.253 30.0472 246 30z"/>
<path style="fill:#ddc0d8; stroke:none;" d="M299.667 30.3333C299.222 30.7777 300.278 30.7222 300.333 30.6667C300.778 30.2222 299.722 30.2778 299.667 30.3333z"/>
<path style="fill:#e9d2e5; stroke:none;" d="M257 31C258.769 31.7789 260.036 31.9124 262 32C260.231 31.2211 258.964 31.0876 257 31z"/>
<path style="fill:#d2aecc; stroke:none;" d="M262 31C263.769 31.7789 265.036 31.9124 267 32C265.231 31.2211 263.964 31.0876 262 31z"/>
<path style="fill:#bc8bb2; stroke:none;" d="M267 31C268.506 31.683 269.315 31.8259 271 32C269.494 31.317 268.685 31.1741 267 31z"/>
<path style="fill:#cca5c5; stroke:none;" d="M296 31L297 32L296 31z"/>
<path style="fill:#e9d2e5; stroke:none;" d="M275 32C276.506 32.6831 277.315 32.8259 279 33C277.494 32.317 276.685 32.1741 275 32z"/>
<path style="fill:#d2aecc; stroke:none;" d="M279 32C280.506 32.6831 281.315 32.8259 283 33C281.494 32.317 280.685 32.1741 279 32z"/>
<path style="fill:#bc8bb2; stroke:none;" d="M283 32C284.248 32.6848 284.548 32.7488 286 33C284.752 32.3152 284.452 32.2512 283 32z"/>
<path style="fill:#ddc0d8; stroke:none;" d="M294 32L295 33L294 32z"/>
<path style="fill:#e9d2e5; stroke:none;" d="M289 33C290.506 33.6831 291.315 33.8259 293 34C291.494 33.317 290.685 33.1741 289 33z"/>
</svg>
