<?xml version="1.0" standalone="yes"?>
<svg xmlns="http://www.w3.org/2000/svg" width="398" height="48">
<path style="fill:#fdfffd; stroke:none;" d="M0 0L0 48L398 48L398 0L0 0z"/>
<path style="fill:#e5f8d9; stroke:none;" d="M104 18C107.699 19.552 112.017 19 116 19L137 19C133.301 17.448 128.983 18 125 18L104 18z"/>
<path style="fill:#d8edd2; stroke:none;" d="M276 18C281.469 20.295 289.099 19 295 19C289.531 16.705 281.901 18 276 18z"/>
<path style="fill:#d5ead0; stroke:none;" d="M343 18C344.248 18.6848 344.548 18.7488 346 19C344.752 18.3152 344.452 18.2512 343 18z"/>
<path style="fill:#a5cf9f; stroke:none;" d="M346 18C347.769 18.7789 349.036 18.9124 351 19C349.231 18.2211 347.964 18.0876 346 18z"/>
<path style="fill:#7ab871; stroke:none;" d="M351 18C354.432 19.4403 358.3 19 362 19C358.568 17.5597 354.7 18 351 18z"/>
<path style="fill:#a0cc9d; stroke:none;" d="M362.667 18.3333C362.222 18.7777 363.278 18.7223 363.333 18.6667C363.778 18.2222 362.722 18.2778 362.667 18.3333z"/>
<path style="fill:#d0e6ce; stroke:none;" d="M364.667 18.3333C364.222 18.7777 365.278 18.7222 365.333 18.6667C365.778 18.2222 364.722 18.2778 364.667 18.3333M385 18C386.248 18.6848 386.548 18.7488 388 19C386.752 18.3152 386.452 18.2512 385 18z"/>
<path style="fill:#a0cc9d; stroke:none;" d="M388.667 18.3333C388.222 18.7777 389.278 18.7223 389.333 18.6667C389.778 18.2222 388.722 18.2778 388.667 18.3333z"/>
<path style="fill:#71b16d; stroke:none;" d="M390 18C391.506 18.6831 392.315 18.8259 394 19C392.494 18.317 391.685 18.1741 390 18z"/>
<path style="fill:#ebfedc; stroke:none;" d="M24 19C25.506 19.683 26.3148 19.8259 28 20C26.494 19.317 25.6852 19.1741 24 19z"/>
<path style="fill:#dbfdbc; stroke:none;" d="M28 19C30.0521 19.8742 31.7472 19.9528 34 20C31.9479 19.1258 30.2528 19.0472 28 19z"/>
<path style="fill:#c5f89a; stroke:none;" d="M34 19C37.4324 20.4403 41.2998 20 45 20C41.5676 18.5597 37.7002 19 34 19z"/>
<path style="fill:#d6f9ba; stroke:none;" d="M45 19C47.8897 20.2129 50.8741 19.9983 54 20C51.1103 18.7871 48.1259 19.0017 45 19z"/>
<path style="fill:#ebfedc; stroke:none;" d="M54 19C56.8897 20.2129 59.8741 19.9983 63 20C60.1103 18.7871 57.1259 19.0017 54 19z"/>
<path style="fill:#e5f8d9; stroke:none;" d="M78 19C80.0521 19.8742 81.7472 19.9528 84 20C81.9479 19.1257 80.2528 19.0472 78 19z"/>
<path style="fill:#d0f4b6; stroke:none;" d="M84 19C85.769 19.7789 87.0359 19.9124 89 20C87.231 19.2211 85.9641 19.0876 84 19z"/>
<path style="fill:#bcf094; stroke:none;" d="M89 19C91.3315 19.9845 93.4567 19.9813 96 20C93.6684 19.0155 91.5433 19.0187 89 19z"/>
<path style="fill:#9ce26d; stroke:none;" d="M94 28L123 28L123 19L103 19.0008C100.533 19.0138 96.7896 18.5738 95.0278 20.7423C93.5338 22.5811 94.0078 25.8061 94 28z"/>
<path style="fill:#92da68; stroke:none;" d="M123 19L123 28C132.431 28 141.622 28.2599 151 29C150.992 26.7321 151.449 23.5179 149.972 21.5887C148.488 19.6495 145.231 19.3987 143 19.1705C136.429 18.4986 129.602 19 123 19z"/>
<path style="fill:#abe28a; stroke:none;" d="M145 19C146.769 19.7789 148.036 19.9124 150 20C148.231 19.2211 146.964 19.0876 145 19z"/>
<path style="fill:#c5eab1; stroke:none;" d="M150 19C151.769 19.7789 153.036 19.9124 155 20C153.231 19.2211 151.964 19.0876 150 19z"/>
<path style="fill:#e0f4d6; stroke:none;" d="M155 19C156.506 19.683 157.315 19.8259 159 20C157.494 19.317 156.685 19.1741 155 19z"/>
<path style="fill:#d8edd2; stroke:none;" d="M247 19C248.248 19.6848 248.548 19.7488 250 20C248.752 19.3152 248.452 19.2512 247 19z"/>
<path style="fill:#c8e6bf; stroke:none;" d="M255 19C256.248 19.6848 256.548 19.7488 258 20C256.752 19.3152 256.452 19.2512 255 19z"/>
<path style="fill:#8dc97c; stroke:none;" d="M258 19C259.248 19.6848 259.548 19.7488 261 20C259.752 19.3152 259.452 19.2512 258 19z"/>
<path style="fill:#71be56; stroke:none;" d="M227 22L227 31C240.337 30.9985 253.672 29.0368 267 29L267 19C253.685 19.2748 240.275 20.9524 227 22z"/>
<path style="fill:#65b44f; stroke:none;" d="M267 19L267 29L287 29L287 19L267 19z"/>
<path style="fill:#5dad4b; stroke:none;" d="M287 19L287 29L319 30L319 20L287 19z"/>
<path style="fill:#86c279; stroke:none;" d="M301 19C302.506 19.6831 303.315 19.8259 305 20C303.494 19.317 302.685 19.1741 301 19z"/>
<path style="fill:#abd4a3; stroke:none;" d="M305 19C307.332 19.9845 309.457 19.9813 312 20C309.668 19.0155 307.543 19.0187 305 19z"/>
<path style="fill:#d5ead0; stroke:none;" d="M312 19C316.217 20.7693 321.459 20 326 20C321.783 18.2307 316.541 19 312 19z"/>
<path style="fill:#abd4a3; stroke:none;" d="M326 19C328.613 20.0977 331.164 19.9928 334 20C331.387 18.9023 328.836 19.0072 326 19z"/>
<path style="fill:#80be74; stroke:none;" d="M334 19C335.769 19.7789 337.036 19.9124 339 20C337.231 19.2211 335.964 19.0876 334 19z"/>
<path style="fill:#489b40; stroke:none;" d="M336 20L336 30L377 30C381.212 30 388.943 31.4664 392.566 28.9722C395.589 26.8916 394.991 22.1795 395 19C387.645 19 380.326 20.2786 373 19.9606C360.719 19.4276 348.236 17.7284 336 20z"/>
<path style="fill:#80be74; stroke:none;" d="M368.667 19.3333C368.222 19.7777 369.278 19.7222 369.333 19.6667C369.778 19.2222 368.722 19.2778 368.667 19.3333z"/>
<path style="fill:#a0cc9d; stroke:none;" d="M370 19C373.163 20.3274 376.586 19.9996 380 20C376.837 18.6726 373.414 19.0004 370 19z"/>
<path style="fill:#71b16d; stroke:none;" d="M380 19C381.248 19.6848 381.548 19.7488 383 20C381.752 19.3152 381.452 19.2512 380 19z"/>
<path style="fill:#aef176; stroke:none;" d="M7 22C13.5814 24.7617 22.0343 22.0192 29 22C21.5101 24.2759 13.3841 23.8174 6 26C11.4868 28.2809 19.9887 26 26 26C39.7591 26 53.3214 27.9909 67 28L67 20C51.1147 20 34.8455 18.972 19 20.054C14.8954 20.3343 11.1575 21.8798 7 22z"/>
<path style="fill:#a5ea71; stroke:none;" d="M67 20L67 28L94 28L94 20L67 20z"/>
<path style="fill:#83cd60; stroke:none;" d="M150 20C150.724 23.0395 150.974 25.8783 151 29C167.672 29.011 184.275 31 201 31L201 22C183.937 22 167.035 20 150 20z"/>
<path style="fill:#a3db88; stroke:none;" d="M163 20C164.248 20.6848 164.548 20.7488 166 21C164.752 20.3152 164.452 20.2512 163 20z"/>
<path style="fill:#c5eab1; stroke:none;" d="M166 20C167.506 20.683 168.315 20.8259 170 21C168.494 20.317 167.685 20.1741 166 20z"/>
<path style="fill:#e0f4d6; stroke:none;" d="M170 20C171.769 20.7789 173.036 20.9124 175 21C173.231 20.2211 171.964 20.0876 170 20z"/>
<path style="fill:#ddf1d5; stroke:none;" d="M240 20C241.248 20.6848 241.548 20.7488 243 21C241.752 20.3152 241.452 20.2512 240 20z"/>
<path style="fill:#9fd091; stroke:none;" d="M243 20C244.248 20.6848 244.548 20.7488 246 21C244.752 20.3152 244.452 20.2512 243 20z"/>
<path style="fill:#54a646; stroke:none;" d="M319 20L319 30L336 30L336 20L319 20z"/>
<path style="fill:#71b16d; stroke:none;" d="M395 20L395 25C395.83 22.9695 395.83 22.0305 395 20z"/>
<path style="fill:#d5feb0; stroke:none;" d="M7 21C9.33155 21.9845 11.4567 21.9813 14 22C11.6684 21.0155 9.54334 21.0187 7 21z"/>
<path style="fill:#a3db88; stroke:none;" d="M181 21C184.163 22.3274 187.586 21.9996 191 22C187.837 20.6726 184.414 21.0004 181 21z"/>
<path style="fill:#bce3ac; stroke:none;" d="M191 21C198.409 24.1089 209.975 22 218 22C210.591 18.8911 199.025 21 191 21z"/>
<path style="fill:#9bd483; stroke:none;" d="M218 21C222.217 22.7693 227.459 22 232 22C227.783 20.2307 222.541 21 218 21z"/>
<path style="fill:#dbfdbc; stroke:none;" d="M20 22C22.8159 23.6286 25.7618 23.0562 29 23C26.1103 21.7871 23.1259 22.0017 20 22z"/>
<path style="fill:#79c55a; stroke:none;" d="M201 22L201 31L227 31L227 22L201 22z"/>
<path style="fill:#cefea0; stroke:none;" d="M8 23C9.76904 23.7789 11.0359 23.9124 13 24C11.231 23.2211 9.96406 23.0876 8 23z"/>
<path style="fill:#ebfedc; stroke:none;" d="M10 24C12.6127 25.0977 15.1645 24.9928 18 25C15.2744 23.2156 13.1762 23.4822 10 24z"/>
<path style="fill:#fdfffd; stroke:none;" d="M16 23C17.769 23.7789 19.0359 23.9124 21 24C19.231 23.2211 17.9641 23.0876 16 23z"/>
<path style="fill:#abd4a3; stroke:none;" d="M395 25L396 26L395 25z"/>
<path style="fill:#cafc9c; stroke:none;" d="M13 26C14.506 26.683 15.3148 26.8259 17 27C15.494 26.317 14.6852 26.1741 13 26z"/>
<path style="fill:#dbfdbc; stroke:none;" d="M17 26C19.0521 26.8742 20.7472 26.9528 23 27C20.9479 26.1258 19.2528 26.0472 17 26z"/>
<path style="fill:#ebfedc; stroke:none;" d="M23 26C27.974 28.0872 34.638 27 40 27C35.026 24.9128 28.3619 26 23 26z"/>
<path style="fill:#d6f9ba; stroke:none;" d="M40 26C42.8897 27.2129 45.8741 26.9983 49 27C46.1103 25.7871 43.1259 26.0017 40 26z"/>
<path style="fill:#c2f599; stroke:none;" d="M54 27C55.506 27.683 56.3148 27.8259 58 28C56.494 27.317 55.6852 27.1741 54 27z"/>
<path style="fill:#71b16d; stroke:none;" d="M394 27L395 28L394 27z"/>
<path style="fill:#d3f6b9; stroke:none;" d="M61 28C64.9586 29.6611 69.7396 29 74 29L98 29C94.0414 27.3389 89.2603 28 85 28L61 28z"/>
<path style="fill:#e5f8d9; stroke:none;" d="M98 28C105.888 31.3101 118.449 29 127 29C119.112 25.6899 106.551 28 98 28z"/>
<path style="fill:#c9edb3; stroke:none;" d="M127 28C130.697 29.5515 135.017 29 139 29C135.303 27.4485 130.983 28 127 28z"/>
<path style="fill:#abe28a; stroke:none;" d="M139 28C141.613 29.0977 144.164 28.9928 147 29C144.387 27.9023 141.835 28.0072 139 28z"/>
<path style="fill:#e0f4d6; stroke:none;" d="M152 29C153.769 29.7789 155.036 29.9124 157 30C155.231 29.2211 153.964 29.0876 152 29z"/>
<path style="fill:#abe28a; stroke:none;" d="M157 29C158.506 29.683 159.315 29.8259 161 30C159.494 29.317 158.685 29.1741 157 29z"/>
<path style="fill:#92ce7d; stroke:none;" d="M258 29C259.769 29.7789 261.036 29.9124 263 30C261.231 29.2211 259.964 29.0876 258 29z"/>
<path style="fill:#b3dba7; stroke:none;" d="M263 29C264.506 29.683 265.315 29.8259 267 30C265.494 29.317 264.685 29.1741 263 29z"/>
<path style="fill:#d8edd2; stroke:none;" d="M267 29C272.469 31.295 280.099 30 286 30C280.531 27.705 272.901 29 267 29z"/>
<path style="fill:#b3dba7; stroke:none;" d="M286 29C289.432 30.4403 293.3 30 297 30C293.568 28.5597 289.7 29 286 29z"/>
<path style="fill:#86c279; stroke:none;" d="M297 29C299.332 29.9845 301.457 29.9813 304 30C301.668 29.0154 299.543 29.0187 297 29z"/>
<path style="fill:#7ab871; stroke:none;" d="M344 29C346.332 29.9845 348.457 29.9813 351 30C348.668 29.0154 346.543 29.0187 344 29z"/>
<path style="fill:#a5cf9f; stroke:none;" d="M351 29C353.332 29.9845 355.457 29.9813 358 30C355.668 29.0155 353.543 29.0187 351 29z"/>
<path style="fill:#7ab871; stroke:none;" d="M358 29C359.506 29.6831 360.315 29.8259 362 30C360.494 29.317 359.685 29.1741 358 29z"/>
<path style="fill:#e0f4d6; stroke:none;" d="M164.667 30.3333C164.222 30.7778 165.278 30.7222 165.333 30.6667C165.778 30.2222 164.722 30.2778 164.667 30.3333z"/>
<path style="fill:#c5eab1; stroke:none;" d="M166 30C167.506 30.683 168.315 30.8259 170 31C168.494 30.317 167.685 30.1741 166 30z"/>
<path style="fill:#a3db88; stroke:none;" d="M170 30C173.163 31.3274 176.586 30.9996 180 31C176.837 29.6726 173.414 30.0004 170 30z"/>
<path style="fill:#92ce7d; stroke:none;" d="M237 30C239.332 30.9845 241.457 30.9813 244 31C241.668 30.0155 239.543 30.0187 237 30z"/>
<path style="fill:#b3dba7; stroke:none;" d="M244 30C245.769 30.779 247.036 30.9124 249 31C247.231 30.2211 245.964 30.0876 244 30z"/>
<path style="fill:#d8edd2; stroke:none;" d="M249 30C250.769 30.779 252.036 30.9124 254 31C252.231 30.2211 250.964 30.0876 249 30z"/>
<path style="fill:#d5ead0; stroke:none;" d="M309 30C310.506 30.683 311.315 30.8259 313 31C311.494 30.317 310.685 30.1741 309 30z"/>
<path style="fill:#abd4a3; stroke:none;" d="M313 30C314.506 30.683 315.315 30.8259 317 31C315.494 30.317 314.685 30.1741 313 30z"/>
<path style="fill:#80be74; stroke:none;" d="M317 30C320.163 31.3274 323.586 30.9996 327 31C323.837 29.6726 320.414 30.0004 317 30z"/>
<path style="fill:#abd4a3; stroke:none;" d="M327 30C328.506 30.683 329.315 30.8259 331 31C329.494 30.317 328.685 30.1741 327 30z"/>
<path style="fill:#d5ead0; stroke:none;" d="M331 30C333.052 30.8743 334.747 30.9528 337 31C334.948 30.1258 333.253 30.0472 331 30z"/>
<path style="fill:#d0e6ce; stroke:none;" d="M365 30C366.248 30.6848 366.548 30.7488 368 31C366.752 30.3152 366.452 30.2512 365 30z"/>
<path style="fill:#a0cc9d; stroke:none;" d="M368 30C369.248 30.6848 369.548 30.7488 371 31C369.752 30.3152 369.452 30.2512 368 30z"/>
<path style="fill:#71b16d; stroke:none;" d="M371 30C374.163 31.3274 377.586 30.9996 381 31C377.837 29.6726 374.414 30.0004 371 30z"/>
<path style="fill:#a0cc9d; stroke:none;" d="M381 30C382.506 30.683 383.315 30.8259 385 31C383.494 30.317 382.685 30.1741 381 30z"/>
<path style="fill:#d0e6ce; stroke:none;" d="M385 30C386.248 30.6848 386.548 30.7488 388 31C386.752 30.3152 386.452 30.2512 385 30z"/>
<path style="fill:#87bd83; stroke:none;" d="M388 30C389.506 30.6831 390.315 30.8259 392 31C390.494 30.317 389.685 30.1741 388 30z"/>
<path style="fill:#ddf1d5; stroke:none;" d="M188 31C190.89 32.2129 193.874 31.9983 197 32C194.11 30.787 191.126 31.0017 188 31z"/>
<path style="fill:#bce3ac; stroke:none;" d="M197 31C202.959 33.5005 211.564 32 218 32C212.041 29.4995 203.436 31 197 31z"/>
<path style="fill:#ddf1d5; stroke:none;" d="M218 31C221.163 32.3274 224.586 31.9996 228 32C224.837 30.6726 221.414 31.0004 218 31z"/>
</svg>
